<svg width="580" height="580" viewBox="0 0 580 580" fill="none" xmlns="http://www.w3.org/2000/svg">
<path d="M433.41 147.673L421.246 160.632L419.519 159.011L422.378 142.892L412.995 152.887L411.278 151.274L423.442 138.316L425.16 139.928L422.303 156.099L431.71 146.078L433.41 147.673Z" fill="white" fill-opacity="0.4"/>
<path d="M438.8 153.434L425.583 165.317L424.008 163.565L437.225 151.682L438.8 153.434ZM437.832 164.317L436.398 165.607L431.077 159.688L432.511 158.398L437.832 164.317ZM444.586 159.87L443.152 161.16L437.023 154.342L438.457 153.053L444.586 159.87Z" fill="white" fill-opacity="0.4"/>
<path d="M451.057 168.08L436.969 178.917L435.555 177.078L449.643 166.242L451.057 168.08ZM454.54 172.608L453.011 173.784L444.638 162.899L446.167 161.723L454.54 172.608Z" fill="white" fill-opacity="0.4"/>
<path d="M448.501 189.312C448.772 189.133 448.983 188.906 449.133 188.631C449.295 188.359 449.35 187.976 449.298 187.484C449.257 186.994 449.068 186.339 448.731 185.518C448.457 184.821 448.244 184.167 448.094 183.554C447.947 182.949 447.886 182.39 447.908 181.878C447.935 181.372 448.058 180.916 448.277 180.508C448.495 180.101 448.832 179.747 449.287 179.446C449.722 179.159 450.196 178.983 450.708 178.918C451.225 178.859 451.75 178.908 452.282 179.064C452.818 179.227 453.337 179.503 453.839 179.894C454.34 180.284 454.795 180.789 455.203 181.407C455.786 182.29 456.127 183.147 456.227 183.978C456.327 184.809 456.226 185.563 455.922 186.241C455.626 186.915 455.162 187.46 454.53 187.877L453.286 185.992C453.592 185.79 453.827 185.504 453.991 185.132C454.166 184.763 454.235 184.342 454.196 183.87C454.162 183.405 453.982 182.925 453.655 182.429C453.309 181.906 452.948 181.535 452.569 181.317C452.203 181.101 451.848 180.999 451.504 181.011C451.166 181.029 450.861 181.128 450.589 181.308C450.385 181.442 450.224 181.597 450.106 181.773C449.999 181.95 449.938 182.176 449.923 182.449C449.915 182.718 449.964 183.056 450.068 183.465C450.172 183.874 450.337 184.375 450.562 184.967C450.954 186.005 451.201 186.91 451.301 187.683C451.401 188.455 451.339 189.121 451.113 189.679C450.887 190.238 450.478 190.712 449.887 191.103C449.405 191.421 448.896 191.61 448.361 191.671C447.83 191.739 447.293 191.679 446.75 191.491C446.218 191.306 445.698 191.005 445.19 190.59C444.693 190.177 444.232 189.648 443.806 189.003C443.165 188.031 442.796 187.095 442.698 186.194C442.601 185.293 442.713 184.488 443.034 183.778C443.356 183.069 443.822 182.512 444.434 182.109L445.684 184.004C445.186 184.372 444.874 184.792 444.747 185.266C444.628 185.735 444.634 186.209 444.765 186.688C444.902 187.162 445.099 187.593 445.355 187.98C445.695 188.497 446.048 188.883 446.412 189.14C446.781 189.403 447.145 189.548 447.504 189.575C447.863 189.601 448.195 189.514 448.501 189.312Z" fill="white" fill-opacity="0.4"/>
<path d="M458.165 209.854L456.463 210.736L452.375 202.845L454.077 201.964L458.165 209.854ZM468.37 195.082L452.589 203.257L451.505 201.165L467.286 192.99L468.37 195.082Z" fill="white" fill-opacity="0.4"/>
<path d="M463.672 222.813L461.963 223.535L457.436 212.819L458.931 212.187L467.168 215.028C468.182 215.378 469.019 215.625 469.681 215.769C470.353 215.918 470.922 215.978 471.387 215.949C471.863 215.925 472.314 215.823 472.741 215.642C473.281 215.414 473.721 215.096 474.061 214.687C474.411 214.283 474.627 213.812 474.709 213.274C474.791 212.735 474.704 212.163 474.447 211.556C474.14 210.828 473.741 210.281 473.25 209.914C472.77 209.552 472.228 209.357 471.625 209.329C471.021 209.301 470.393 209.425 469.741 209.701L468.862 207.621C469.784 207.231 470.713 207.077 471.649 207.159C472.584 207.241 473.445 207.584 474.23 208.188C475.023 208.79 475.665 209.672 476.156 210.834C476.593 211.868 476.783 212.83 476.726 213.72C476.677 214.607 476.405 215.384 475.91 216.053C475.425 216.726 474.745 217.247 473.868 217.618C473.388 217.821 472.866 217.944 472.301 217.988C471.748 218.037 471.167 218.021 470.559 217.942C469.955 217.871 469.337 217.747 468.707 217.572C468.079 217.404 467.448 217.207 466.813 216.98L460.204 214.605L463.672 222.813Z" fill="white" fill-opacity="0.4"/>
<path d="M466.607 237.396L465.575 233.832L467.423 233.322L468.448 236.863C468.801 238.083 469.349 239.026 470.092 239.692C470.844 240.355 471.739 240.757 472.779 240.896C473.829 241.041 474.976 240.934 476.219 240.574L477.263 240.272C478.24 239.989 479.073 239.621 479.764 239.167C480.462 238.71 481.007 238.18 481.4 237.575C481.8 236.968 482.042 236.296 482.126 235.56C482.211 234.832 482.132 234.046 481.888 233.202L480.774 229.356L482.627 228.819L483.74 232.666C484.064 233.783 484.172 234.858 484.063 235.889C483.963 236.918 483.657 237.866 483.146 238.734C482.645 239.608 481.95 240.368 481.061 241.015C480.18 241.66 479.122 242.161 477.887 242.518L476.867 242.814C475.632 243.171 474.466 243.314 473.369 243.242C472.28 243.167 471.289 242.891 470.397 242.412C469.507 241.941 468.736 241.283 468.084 240.438C467.443 239.598 466.951 238.585 466.607 237.396ZM482.997 230.098L465.924 235.04L465.269 232.776L482.342 227.835L482.997 230.098Z" fill="white" fill-opacity="0.4"/>
<path d="M470.393 253.633C470.209 252.732 470.193 251.883 470.347 251.088C470.51 250.299 470.816 249.584 471.267 248.944C471.72 248.312 472.3 247.778 473.008 247.343C473.717 246.908 474.526 246.597 475.435 246.412L475.937 246.309C476.99 246.094 477.958 246.058 478.843 246.202C479.736 246.343 480.524 246.623 481.207 247.04C481.89 247.457 482.448 247.974 482.882 248.592C483.315 249.209 483.606 249.881 483.754 250.607C483.942 251.531 483.946 252.361 483.764 253.096C483.583 253.839 483.25 254.484 482.763 255.032C482.285 255.578 481.68 256.034 480.949 256.399C480.226 256.763 479.41 257.037 478.501 257.223L477.508 257.425L475.536 247.761L477.342 247.393L478.863 254.844L479.03 254.81C479.598 254.661 480.131 254.427 480.631 254.109C481.133 253.799 481.514 253.389 481.776 252.879C482.037 252.369 482.09 251.735 481.936 250.978C481.833 250.475 481.631 250.035 481.33 249.656C481.036 249.276 480.651 248.976 480.175 248.758C479.698 248.54 479.144 248.408 478.512 248.362C477.879 248.317 477.173 248.374 476.391 248.534L475.889 248.636C475.275 248.762 474.714 248.963 474.206 249.241C473.707 249.526 473.288 249.873 472.948 250.283C472.61 250.701 472.373 251.169 472.238 251.686C472.104 252.212 472.099 252.778 472.223 253.384C472.383 254.165 472.677 254.794 473.107 255.271C473.536 255.749 474.06 256.136 474.677 256.433L473.886 257.99C473.406 257.798 472.931 257.525 472.461 257.172C471.99 256.82 471.571 256.353 471.203 255.772C470.837 255.199 470.567 254.486 470.393 253.633Z" fill="white" fill-opacity="0.4"/>
<path d="M472.531 264.756L472.209 262.521L486.659 260.439C487.602 260.303 488.419 260.358 489.113 260.603C489.815 260.856 490.378 261.28 490.801 261.877C491.232 262.473 491.511 263.214 491.639 264.1C491.676 264.357 491.697 264.617 491.702 264.88C491.708 265.15 491.697 265.415 491.668 265.674L489.827 265.816C489.842 265.641 489.843 265.444 489.828 265.224C489.813 265.012 489.791 264.802 489.761 264.592C489.693 264.117 489.537 263.72 489.294 263.402C489.06 263.09 488.749 262.872 488.361 262.747C487.973 262.622 487.513 262.597 486.981 262.674L472.531 264.756ZM486.004 265.651L484.289 265.899L483.268 258.818L484.984 258.571L486.004 265.651Z" fill="white" fill-opacity="0.4"/>
<path d="M486.586 271.265L473.444 272.577L473.218 270.317L486.361 269.006L486.586 271.265ZM489.83 268.488C490.194 268.451 490.513 268.53 490.786 268.724C491.06 268.925 491.218 269.245 491.262 269.682C491.305 270.111 491.212 270.452 490.984 270.703C490.756 270.963 490.46 271.111 490.096 271.148C489.747 271.183 489.436 271.095 489.162 270.885C488.896 270.683 488.742 270.367 488.699 269.938C488.655 269.501 488.744 269.156 488.964 268.905C489.193 268.662 489.482 268.522 489.83 268.488Z" fill="white" fill-opacity="0.4"/>
<path d="M479.657 301.249L479.575 303.592C478.457 303.43 477.464 303.074 476.595 302.522C475.727 301.971 475.049 301.21 474.562 300.24C474.083 299.27 473.869 298.074 473.919 296.651C473.955 295.61 474.184 294.669 474.604 293.829C475.024 292.997 475.603 292.288 476.34 291.703C477.085 291.119 477.968 290.677 478.988 290.379C480.016 290.09 481.152 289.967 482.396 290.01L484.165 290.072C485.41 290.116 486.53 290.318 487.527 290.679C488.532 291.048 489.386 291.554 490.088 292.198C490.79 292.849 491.321 293.621 491.68 294.513C492.04 295.405 492.2 296.4 492.162 297.498C492.115 298.84 491.823 299.966 491.286 300.875C490.749 301.785 490.025 302.48 489.112 302.961C488.207 303.451 487.167 303.736 485.992 303.817L486.074 301.474C486.907 301.39 487.627 301.203 488.231 300.915C488.844 300.627 489.323 300.204 489.668 299.646C490.013 299.088 490.202 298.35 490.234 297.431C490.262 296.642 490.136 295.941 489.856 295.329C489.576 294.724 489.167 294.209 488.628 293.783C488.089 293.365 487.436 293.041 486.671 292.811C485.905 292.58 485.051 292.449 484.108 292.415L482.314 292.353C481.444 292.322 480.623 292.383 479.853 292.535C479.082 292.695 478.401 292.952 477.81 293.306C477.22 293.66 476.748 294.12 476.394 294.686C476.048 295.252 475.862 295.929 475.834 296.718C475.799 297.718 475.93 298.521 476.226 299.126C476.522 299.731 476.962 300.194 477.545 300.516C478.128 300.845 478.832 301.09 479.657 301.249Z" fill="white" fill-opacity="0.4"/>
<path d="M484.43 309.723L473.353 308.604L473.58 306.357L486.721 307.685L486.5 309.871L484.43 309.723ZM486.152 314.045L484.064 313.821C484.124 313.639 484.166 313.463 484.191 313.294C484.224 313.134 484.251 312.948 484.272 312.738C484.324 312.22 484.29 311.754 484.168 311.341C484.046 310.928 483.853 310.569 483.59 310.264C483.326 309.959 483 309.706 482.611 309.503C482.23 309.309 481.803 309.163 481.331 309.067L481.03 308.398C481.823 308.478 482.561 308.631 483.241 308.855C483.921 309.087 484.512 309.396 485.013 309.782C485.521 310.169 485.9 310.633 486.148 311.173C486.403 311.722 486.495 312.353 486.423 313.066C486.406 313.228 486.367 313.412 486.306 313.618C486.252 313.826 486.201 313.968 486.152 314.045Z" fill="white" fill-opacity="0.4"/>
<path d="M473.434 318.748L484.562 324.214L484.187 326.602L469.946 319.004C469.644 318.833 469.323 318.618 468.985 318.359C468.637 318.106 468.319 317.801 468.029 317.442C467.739 317.084 467.524 316.671 467.383 316.204C467.233 315.744 467.205 315.216 467.298 314.622C467.326 314.445 467.385 314.223 467.476 313.958C467.568 313.692 467.638 313.505 467.688 313.398L469.499 313.67C469.48 313.733 469.457 313.832 469.427 313.967C469.388 314.109 469.365 314.209 469.356 314.265C469.276 314.771 469.277 315.212 469.358 315.588C469.431 315.961 469.606 316.294 469.881 316.584C470.148 316.881 470.536 317.161 471.047 317.422L473.434 318.748ZM485.55 317.919L474.888 319.718L472.446 319.927L471.877 318.195L485.932 315.483L485.55 317.919Z" fill="white" fill-opacity="0.4"/>
<path d="M480.71 330.726L465.363 327.202L465.871 324.989L483.693 329.082L483.229 331.104L480.71 330.726ZM474.864 338.514L474.614 338.457C473.678 338.242 472.835 337.931 472.085 337.525C471.343 337.121 470.727 336.637 470.239 336.074C469.748 335.519 469.412 334.895 469.228 334.201C469.045 333.508 469.046 332.761 469.23 331.96C469.417 331.143 469.718 330.452 470.132 329.887C470.545 329.323 471.06 328.882 471.676 328.564C472.291 328.246 472.99 328.039 473.772 327.943C474.552 327.855 475.405 327.867 476.331 327.98L477.664 328.286C478.594 328.599 479.405 328.974 480.099 329.408C480.792 329.843 481.355 330.336 481.788 330.886C482.227 331.446 482.515 332.068 482.65 332.75C482.794 333.434 482.773 334.181 482.587 334.99C482.401 335.799 482.077 336.48 481.616 337.034C481.163 337.59 480.598 338.015 479.92 338.31C479.243 338.606 478.475 338.767 477.617 338.796C476.765 338.834 475.847 338.74 474.864 338.514ZM475.122 336.244L475.372 336.301C476.014 336.449 476.633 336.52 477.227 336.514C477.829 336.511 478.377 336.415 478.871 336.228C479.371 336.051 479.794 335.772 480.14 335.392C480.494 335.014 480.74 334.524 480.878 333.921C481.006 333.366 481.022 332.86 480.926 332.404C480.829 331.956 480.65 331.552 480.391 331.191C480.139 330.833 479.828 330.515 479.457 330.238C479.093 329.971 478.702 329.743 478.286 329.556L475.205 328.848C474.613 328.879 474.039 328.981 473.481 329.154C472.932 329.328 472.452 329.619 472.041 330.025C471.638 330.434 471.354 330.999 471.188 331.721C471.052 332.316 471.057 332.855 471.205 333.34C471.358 333.835 471.621 334.271 471.994 334.649C472.365 335.034 472.816 335.359 473.348 335.624C473.888 335.89 474.48 336.096 475.122 336.244Z" fill="white" fill-opacity="0.4"/>
<path d="M478.46 349.267L476.798 348.773L478.833 341.928L480.494 342.422L478.46 349.267ZM482.883 345.653L482.24 347.818L469.638 344.073C469.208 343.946 468.865 343.916 468.607 343.983C468.349 344.051 468.154 344.18 468.021 344.37C467.888 344.559 467.786 344.775 467.714 345.017C467.661 345.196 467.621 345.388 467.594 345.593C467.573 345.807 467.559 345.968 467.552 346.077L465.782 345.563C465.778 345.376 465.795 345.134 465.831 344.84C465.858 344.55 465.929 344.211 466.045 343.821C466.203 343.29 466.453 342.834 466.796 342.452C467.138 342.07 467.595 341.819 468.165 341.7C468.741 341.591 469.45 341.662 470.292 341.912L482.883 345.653Z" fill="white" fill-opacity="0.4"/>
<path d="M471.215 349.998L471.478 350.095C472.372 350.424 473.153 350.858 473.821 351.399C474.497 351.942 475.028 352.562 475.413 353.259C475.806 353.958 476.032 354.713 476.089 355.523C476.154 356.337 476.028 357.175 475.711 358.038C475.391 358.908 474.942 359.632 474.366 360.209C473.794 360.797 473.132 361.23 472.38 361.508C471.632 361.796 470.825 361.929 469.958 361.905C469.098 361.884 468.222 361.709 467.328 361.38L467.065 361.283C466.171 360.955 465.39 360.52 464.722 359.979C464.054 359.439 463.524 358.815 463.134 358.108C462.749 357.411 462.523 356.656 462.458 355.843C462.398 355.041 462.528 354.204 462.848 353.333C463.168 352.463 463.613 351.737 464.181 351.157C464.758 350.58 465.42 350.147 466.168 349.859C466.92 349.581 467.726 349.452 468.585 349.473C469.445 349.495 470.321 349.669 471.215 349.998ZM470.699 352.215L470.435 352.118C469.817 351.89 469.206 351.748 468.602 351.691C468.007 351.636 467.445 351.677 466.919 351.813C466.389 351.956 465.921 352.205 465.513 352.558C465.114 352.914 464.806 353.386 464.589 353.974C464.376 354.554 464.307 355.106 464.384 355.628C464.466 356.161 464.663 356.65 464.976 357.094C465.29 357.539 465.691 357.934 466.18 358.278C466.674 358.633 467.23 358.925 467.848 359.152L468.112 359.249C468.723 359.474 469.328 359.609 469.926 359.656C470.529 359.713 471.096 359.67 471.626 359.527C472.16 359.394 472.631 359.151 473.038 358.798C473.443 358.452 473.753 357.985 473.969 357.397C474.183 356.817 474.249 356.26 474.167 355.727C474.083 355.202 473.882 354.712 473.564 354.257C473.25 353.812 472.845 353.416 472.349 353.068C471.86 352.724 471.31 352.439 470.699 352.215Z" fill="white" fill-opacity="0.4"/>
<path d="M465.05 387.774L453.753 374.758L454.922 372.657L467.162 387.217L466.408 388.572L465.05 387.774ZM448.496 384.21L465.518 386.932L466.912 387.665L466.159 389.02L447.321 386.322L448.496 384.21ZM454.394 387.142L452.709 386.204L457.563 377.478L459.248 378.415L454.394 387.142Z" fill="white" fill-opacity="0.4"/>
<path d="M459.405 400.139L444.467 390.508L445.744 388.528L460.681 398.159L459.405 400.139Z" fill="white" fill-opacity="0.4"/>
<path d="M446.428 417.857L432.787 406.463L434.298 404.654L447.938 416.049L446.428 417.857ZM435.518 418.446L434.038 417.209L439.14 411.101L440.62 412.338L435.518 418.446ZM440.879 424.499L439.399 423.263L445.276 416.227L446.757 417.464L440.879 424.499Z" fill="white" fill-opacity="0.4"/>
<path d="M433.139 426.012L423.509 416.973L425.063 415.317L434.693 424.357L433.139 426.012ZM437.364 426.63C437.631 426.881 437.781 427.173 437.815 427.506C437.843 427.844 437.707 428.174 437.406 428.494C437.111 428.809 436.793 428.963 436.453 428.956C436.108 428.956 435.801 428.83 435.534 428.579C435.279 428.34 435.141 428.048 435.118 427.703C435.096 427.37 435.233 427.046 435.528 426.732C435.829 426.411 436.146 426.251 436.48 426.252C436.814 426.265 437.109 426.391 437.364 426.63Z" fill="white" fill-opacity="0.4"/>
<path d="M426.248 429.011L419.068 421.503L420.701 419.943L429.829 429.489L428.285 430.965L426.248 429.011ZM424.367 426.267L425.071 425.644C425.69 426.302 426.169 426.998 426.51 427.731C426.856 428.47 427.055 429.208 427.108 429.946C427.16 430.684 427.058 431.389 426.801 432.063C426.544 432.748 426.127 433.366 425.551 433.917C425.08 434.367 424.595 434.707 424.095 434.938C423.6 435.174 423.089 435.281 422.56 435.258C422.025 435.24 421.476 435.078 420.913 434.772C420.355 434.471 419.776 434.007 419.174 433.377L413.193 427.122L414.834 425.553L420.832 431.826C421.31 432.326 421.766 432.655 422.2 432.815C422.639 432.98 423.065 432.995 423.477 432.861C423.894 432.732 424.308 432.471 424.72 432.077C425.126 431.689 425.415 431.249 425.587 430.758C425.753 430.272 425.814 429.764 425.768 429.234C425.716 428.709 425.573 428.188 425.337 427.67C425.101 427.164 424.777 426.696 424.367 426.267Z" fill="white" fill-opacity="0.4"/>
<path d="M415.132 442.777L414.013 441.453L419.468 436.844L420.586 438.168L415.132 442.777ZM420.812 442.18L419.087 443.638L410.602 433.596C410.313 433.254 410.042 433.04 409.79 432.956C409.537 432.871 409.303 432.871 409.088 432.957C408.873 433.043 408.669 433.167 408.476 433.33C408.333 433.451 408.194 433.59 408.06 433.746C407.925 433.913 407.825 434.041 407.759 434.128L406.56 432.728C406.66 432.569 406.807 432.376 406.999 432.149C407.18 431.922 407.425 431.677 407.736 431.414C408.159 431.057 408.618 430.813 409.114 430.681C409.611 430.55 410.13 430.591 410.672 430.804C411.213 431.028 411.768 431.476 412.335 432.147L420.812 442.18Z" fill="white" fill-opacity="0.4"/>
<path d="M399.784 437.672C400.519 437.119 401.279 436.742 402.063 436.54C402.846 436.349 403.623 436.32 404.394 436.452C405.16 436.59 405.891 436.886 406.587 437.34C407.284 437.793 407.912 438.391 408.469 439.133L408.777 439.543C409.422 440.401 409.869 441.261 410.119 442.122C410.373 442.989 410.459 443.821 410.375 444.617C410.291 445.413 410.062 446.139 409.69 446.795C409.318 447.451 408.836 448.002 408.244 448.447C407.489 449.014 406.74 449.372 405.998 449.523C405.25 449.678 404.524 449.653 403.82 449.449C403.122 449.25 402.451 448.899 401.808 448.395C401.17 447.898 400.572 447.278 400.015 446.536L399.406 445.726L407.292 439.802L408.399 441.276L402.319 445.844L402.421 445.98C402.799 446.429 403.239 446.811 403.741 447.127C404.236 447.447 404.77 447.616 405.343 447.633C405.916 447.651 406.511 447.428 407.129 446.963C407.539 446.655 407.851 446.284 408.063 445.849C408.281 445.421 408.387 444.945 408.38 444.421C408.373 443.897 408.254 443.339 408.025 442.749C407.795 442.158 407.44 441.544 406.961 440.906L406.653 440.496C406.277 439.995 405.854 439.575 405.385 439.235C404.915 438.907 404.421 438.677 403.905 438.545C403.383 438.419 402.859 438.405 402.333 438.505C401.801 438.609 401.287 438.847 400.793 439.219C400.155 439.698 399.713 440.234 399.466 440.826C399.219 441.419 399.093 442.058 399.089 442.743L397.343 442.695C397.312 442.18 397.355 441.633 397.472 441.057C397.588 440.481 397.83 439.902 398.198 439.321C398.559 438.744 399.087 438.195 399.784 437.672Z" fill="white" fill-opacity="0.4"/>
<path d="M389.956 446.692C389.503 446.981 389.144 447.341 388.878 447.771C388.612 448.202 388.459 448.657 388.418 449.137C388.381 449.624 388.479 450.087 388.712 450.528L386.901 451.684C386.515 451.004 386.346 450.247 386.394 449.415C386.439 448.594 386.68 447.799 387.115 447.029C387.554 446.265 388.168 445.632 388.957 445.128C389.794 444.594 390.619 444.275 391.431 444.171C392.237 444.072 393.01 444.148 393.75 444.4C394.483 444.656 395.165 445.051 395.795 445.585C396.423 446.13 396.976 446.776 397.453 447.524L397.729 447.956C398.207 448.703 398.558 449.473 398.784 450.266C399.008 451.069 399.081 451.858 399.005 452.63C398.922 453.408 398.666 454.141 398.237 454.83C397.801 455.523 397.165 456.137 396.328 456.672C395.457 457.228 394.582 457.536 393.703 457.595C392.828 457.661 392.01 457.507 391.25 457.134C390.487 456.771 389.843 456.216 389.319 455.47L391.129 454.314C391.457 454.751 391.852 455.083 392.315 455.309C392.771 455.539 393.261 455.642 393.786 455.616C394.307 455.601 394.822 455.432 395.33 455.108C395.913 454.735 396.329 454.306 396.578 453.819C396.824 453.343 396.939 452.835 396.923 452.295C396.904 451.766 396.794 451.232 396.595 450.693C396.393 450.166 396.137 449.658 395.826 449.171L395.55 448.739C395.239 448.252 394.885 447.803 394.486 447.391C394.088 446.979 393.653 446.653 393.182 446.413C392.703 446.178 392.194 446.069 391.654 446.085C391.112 446.113 390.546 446.315 389.956 446.692Z" fill="white" fill-opacity="0.4"/>
<path d="M389.16 467.136L380.224 450.652L382.21 449.576L391.145 466.06L389.16 467.136ZM384.082 456.642L384.926 456.227C385.349 457.025 385.629 457.822 385.764 458.619C385.904 459.422 385.902 460.187 385.758 460.913C385.615 461.639 385.331 462.293 384.906 462.875C384.477 463.468 383.913 463.954 383.211 464.334C382.639 464.645 382.081 464.845 381.538 464.936C380.999 465.034 380.477 465.002 379.973 464.84C379.461 464.682 378.974 464.382 378.512 463.938C378.053 463.502 377.616 462.901 377.201 462.135L373.077 454.526L375.073 453.444L379.209 461.075C379.539 461.683 379.892 462.121 380.269 462.389C380.649 462.664 381.056 462.791 381.488 462.769C381.925 462.755 382.393 462.612 382.894 462.34C383.388 462.073 383.782 461.725 384.078 461.296C384.366 460.872 384.558 460.397 384.653 459.873C384.742 459.353 384.74 458.813 384.649 458.251C384.554 457.701 384.365 457.165 384.082 456.642Z" fill="white" fill-opacity="0.4"/>
<path d="M360.563 467.667L364.971 465.901L365.684 467.68L361.276 469.446C360.422 469.789 359.786 470.202 359.366 470.685C358.946 471.169 358.712 471.701 358.664 472.282C358.609 472.865 358.705 473.466 358.953 474.086C359.181 474.652 359.519 475.135 359.968 475.534C360.409 475.935 360.955 476.181 361.605 476.271C362.258 476.369 363.011 476.247 363.865 475.905L367.762 474.343L361.867 459.635L364.054 458.759L370.667 475.256L364.582 477.695C363.336 478.195 362.196 478.402 361.162 478.316C360.128 478.231 359.236 477.896 358.484 477.312C357.736 476.735 357.166 475.959 356.776 474.985C356.352 473.928 356.213 472.936 356.359 472.009C356.505 471.083 356.93 470.25 357.633 469.512C358.34 468.782 359.317 468.167 360.563 467.667Z" fill="white" fill-opacity="0.4"/>
<path d="M352.583 470.172L352.666 470.44C352.947 471.35 353.076 472.234 353.052 473.093C353.031 473.96 352.86 474.758 352.541 475.488C352.224 476.225 351.761 476.862 351.152 477.4C350.546 477.945 349.803 478.354 348.925 478.626C348.038 478.9 347.191 478.983 346.382 478.876C345.569 478.778 344.823 478.515 344.145 478.086C343.461 477.667 342.866 477.106 342.359 476.402C341.854 475.707 341.461 474.904 341.179 473.995L341.096 473.726C340.815 472.817 340.686 471.932 340.709 471.073C340.733 470.214 340.908 469.415 341.232 468.675C341.552 467.946 342.015 467.309 342.621 466.763C343.222 466.228 343.966 465.823 344.852 465.549C345.739 465.275 346.585 465.187 347.391 465.287C348.199 465.395 348.945 465.658 349.629 466.077C350.307 466.506 350.898 467.068 351.403 467.764C351.908 468.46 352.301 469.262 352.583 470.172ZM350.508 471.108L350.425 470.839C350.23 470.21 349.972 469.638 349.652 469.124C349.333 468.618 348.96 468.196 348.532 467.86C348.097 467.526 347.615 467.305 347.087 467.196C346.562 467.094 345.999 467.136 345.401 467.321C344.81 467.504 344.33 467.785 343.962 468.163C343.588 468.551 343.319 469.005 343.156 469.524C342.993 470.043 342.923 470.601 342.946 471.199C342.964 471.807 343.07 472.425 343.265 473.055L343.348 473.323C343.541 473.945 343.8 474.508 344.126 475.012C344.447 475.526 344.825 475.95 345.261 476.284C345.691 476.628 346.17 476.854 346.698 476.964C347.218 477.075 347.777 477.038 348.376 476.853C348.967 476.67 349.449 476.385 349.823 475.996C350.189 475.611 350.457 475.153 350.625 474.624C350.788 474.105 350.857 473.543 350.832 472.937C350.808 472.339 350.701 471.73 350.508 471.108Z" fill="white" fill-opacity="0.4"/>
<path d="M332.807 474.529L331.831 487.387L330.157 487.728L330.161 482.806L331.291 469.357L332.953 469.018L332.807 474.529ZM338.864 485.951L333.681 474.6L331.733 469.267L333.384 468.93L341.16 485.483L338.864 485.951ZM323.254 476.741L322.992 489.191L320.684 489.662L321.34 471.388L322.99 471.051L323.254 476.741ZM329.905 487.78L324.064 476.314L321.77 471.3L323.433 470.961L329.611 482.919L331.556 487.443L329.905 487.78Z" fill="white" fill-opacity="0.4"/>
<path d="M303.133 473.613L306.837 473.379L306.933 475.293L303.254 475.525C301.987 475.605 300.948 475.936 300.137 476.517C299.326 477.107 298.74 477.894 298.378 478.879C298.008 479.873 297.865 481.015 297.946 482.307L298.015 483.391C298.079 484.406 298.258 485.3 298.551 486.073C298.845 486.853 299.245 487.501 299.75 488.015C300.256 488.537 300.859 488.919 301.56 489.16C302.252 489.402 303.036 489.495 303.913 489.44L307.909 489.187L308.031 491.112L304.035 491.365C302.874 491.438 301.802 491.31 300.819 490.981C299.836 490.66 298.976 490.155 298.24 489.468C297.496 488.789 296.904 487.946 296.465 486.938C296.027 485.939 295.767 484.797 295.686 483.514L295.619 482.454C295.538 481.171 295.652 480.001 295.96 478.946C296.269 477.899 296.754 476.992 297.415 476.225C298.068 475.458 298.877 474.848 299.843 474.395C300.802 473.952 301.899 473.691 303.133 473.613ZM306.703 491.196L305.582 473.458L307.933 473.309L309.054 491.047L306.703 491.196Z" fill="white" fill-opacity="0.4"/>
<path d="M286.533 473.782C287.453 473.797 288.284 473.966 289.027 474.288C289.762 474.618 290.394 475.072 290.921 475.651C291.44 476.229 291.836 476.911 292.108 477.697C292.379 478.483 292.507 479.34 292.492 480.268L292.483 480.78C292.465 481.854 292.29 482.808 291.959 483.64C291.627 484.481 291.184 485.19 290.629 485.767C290.074 486.343 289.448 486.776 288.751 487.066C288.054 487.355 287.336 487.494 286.595 487.481C285.651 487.465 284.84 487.289 284.162 486.952C283.476 486.615 282.918 486.15 282.489 485.556C282.059 484.971 281.745 484.282 281.547 483.489C281.349 482.705 281.257 481.848 281.273 480.921L281.29 479.908L291.152 480.074L291.121 481.917L283.517 481.789L283.514 481.96C283.537 482.546 283.649 483.118 283.851 483.675C284.045 484.231 284.363 484.693 284.805 485.058C285.246 485.424 285.853 485.613 286.626 485.626C287.139 485.635 287.613 485.533 288.048 485.32C288.483 485.116 288.858 484.805 289.175 484.387C289.491 483.969 289.74 483.456 289.921 482.849C290.102 482.242 290.199 481.539 290.213 480.742L290.221 480.229C290.232 479.603 290.156 479.011 289.995 478.455C289.825 477.907 289.577 477.423 289.25 477.002C288.915 476.581 288.51 476.249 288.034 476.005C287.55 475.761 286.998 475.633 286.38 475.623C285.583 475.609 284.904 475.761 284.346 476.077C283.787 476.393 283.295 476.82 282.871 477.358L281.523 476.249C281.815 475.823 282.184 475.418 282.63 475.035C283.076 474.651 283.622 474.343 284.269 474.11C284.908 473.877 285.662 473.767 286.533 473.782Z" fill="white" fill-opacity="0.4"/>
<path d="M268.375 477.34C268.336 477.753 268.367 478.124 268.467 478.452C268.558 478.787 268.749 479.1 269.041 479.388C269.325 479.677 269.731 479.964 270.26 480.251C270.781 480.536 271.447 480.84 272.259 481.161C273.11 481.503 273.873 481.864 274.548 482.246C275.223 482.636 275.792 483.062 276.255 483.522C276.719 483.982 277.059 484.492 277.277 485.052C277.494 485.612 277.57 486.236 277.506 486.925C277.441 487.614 277.24 488.236 276.902 488.793C276.563 489.35 276.111 489.819 275.544 490.199C274.968 490.586 274.3 490.867 273.54 491.041C272.78 491.215 271.946 491.259 271.039 491.174C269.71 491.05 268.608 490.689 267.732 490.092C266.847 489.502 266.2 488.775 265.79 487.911C265.38 487.056 265.218 486.166 265.305 485.242L267.638 485.461C267.576 486.125 267.663 486.726 267.899 487.263C268.134 487.808 268.525 488.254 269.073 488.599C269.62 488.953 270.335 489.171 271.219 489.254C272.053 489.332 272.754 489.271 273.32 489.071C273.886 488.87 274.323 488.568 274.631 488.164C274.931 487.759 275.106 487.28 275.158 486.729C275.193 486.357 275.148 486.009 275.023 485.687C274.889 485.372 274.668 485.069 274.36 484.779C274.044 484.488 273.637 484.208 273.139 483.941C272.633 483.673 272.024 483.403 271.314 483.133C270.336 482.755 269.499 482.358 268.802 481.941C268.105 481.524 267.543 481.075 267.114 480.593C266.676 480.119 266.369 479.596 266.194 479.024C266.01 478.459 265.95 477.832 266.015 477.143C266.082 476.422 266.289 475.784 266.636 475.227C266.982 474.671 267.446 474.212 268.028 473.85C268.609 473.487 269.291 473.229 270.074 473.073C270.848 472.925 271.701 472.894 272.633 472.982C273.451 473.058 274.247 473.247 275.02 473.549C275.784 473.849 276.47 474.257 277.075 474.771C277.673 475.285 278.135 475.892 278.462 476.593C278.78 477.301 278.897 478.097 278.814 478.98L276.481 478.762C276.538 478.154 276.469 477.62 276.275 477.161C276.08 476.709 275.794 476.323 275.415 476.001C275.029 475.679 274.582 475.424 274.077 475.238C273.562 475.059 273.021 474.943 272.454 474.89C271.636 474.813 270.933 474.862 270.344 475.035C269.756 475.209 269.296 475.493 268.965 475.887C268.625 476.28 268.429 476.765 268.375 477.34Z" fill="white" fill-opacity="0.4"/>
<path d="M263.877 478.802L263.829 479.079C263.668 480.017 263.382 480.864 262.971 481.619C262.559 482.382 262.045 483.016 261.43 483.522C260.813 484.035 260.111 484.393 259.325 484.596C258.537 484.807 257.69 484.835 256.784 484.679C255.87 484.522 255.076 484.212 254.405 483.749C253.723 483.294 253.178 482.721 252.768 482.031C252.349 481.348 252.073 480.578 251.939 479.721C251.805 478.872 251.818 477.978 251.98 477.04L252.027 476.763C252.189 475.825 252.475 474.978 252.885 474.223C253.296 473.468 253.814 472.834 254.439 472.323C255.054 471.817 255.756 471.459 256.544 471.248C257.322 471.043 258.168 471.02 259.083 471.177C259.997 471.334 260.791 471.64 261.464 472.095C262.136 472.557 262.681 473.13 263.101 473.813C263.51 474.503 263.783 475.272 263.917 476.121C264.052 476.97 264.038 477.864 263.877 478.802ZM261.604 478.696L261.651 478.419C261.763 477.77 261.793 477.143 261.74 476.539C261.685 475.944 261.544 475.399 261.315 474.906C261.078 474.411 260.749 473.995 260.328 473.658C259.905 473.329 259.386 473.112 258.768 473.006C258.158 472.901 257.604 472.933 257.104 473.103C256.594 473.28 256.149 473.562 255.769 473.951C255.388 474.34 255.073 474.806 254.822 475.349C254.562 475.899 254.377 476.499 254.265 477.148L254.217 477.425C254.107 478.066 254.083 478.686 254.145 479.283C254.198 479.886 254.343 480.436 254.58 480.931C254.807 481.432 255.132 481.851 255.553 482.188C255.966 482.523 256.481 482.744 257.099 482.851C257.708 482.955 258.267 482.92 258.777 482.743C259.278 482.565 259.724 482.278 260.114 481.883C260.495 481.494 260.811 481.024 261.063 480.473C261.313 479.93 261.493 479.338 261.604 478.696Z" fill="white" fill-opacity="0.4"/>
<path d="M244.917 470.086C244.395 469.956 243.887 469.942 243.392 470.045C242.896 470.148 242.46 470.35 242.084 470.65C241.705 470.958 241.436 471.348 241.276 471.82L239.192 471.301C239.42 470.553 239.853 469.91 240.49 469.372C241.117 468.841 241.86 468.468 242.718 468.255C243.575 468.049 244.457 468.059 245.365 468.285C246.329 468.525 247.127 468.905 247.761 469.423C248.387 469.94 248.863 470.554 249.19 471.264C249.508 471.972 249.69 472.739 249.736 473.564C249.772 474.395 249.683 475.241 249.468 476.101L249.344 476.599C249.13 477.46 248.813 478.244 248.393 478.953C247.963 479.668 247.441 480.264 246.828 480.74C246.207 481.214 245.498 481.532 244.703 481.695C243.9 481.855 243.016 481.815 242.053 481.575C241.05 481.325 240.225 480.901 239.577 480.304C238.927 479.714 238.477 479.015 238.225 478.206C237.964 477.403 237.924 476.554 238.105 475.66L240.19 476.179C240.097 476.718 240.128 477.233 240.283 477.725C240.429 478.214 240.692 478.64 241.071 479.003C241.441 479.372 241.917 479.629 242.502 479.775C243.173 479.942 243.771 479.948 244.296 479.794C244.811 479.646 245.259 479.38 245.639 478.997C246.01 478.619 246.323 478.173 246.577 477.658C246.821 477.148 247.013 476.613 247.153 476.053L247.277 475.555C247.417 474.995 247.499 474.428 247.525 473.856C247.55 473.283 247.487 472.744 247.337 472.236C247.179 471.727 246.908 471.282 246.525 470.902C246.132 470.527 245.596 470.255 244.917 470.086Z" fill="white" fill-opacity="0.4"/>
<path d="M218.666 461.813L219.341 460.019L230.606 464.258L229.931 466.052L218.666 461.813ZM214.049 475.192L230.081 464.06L231.44 464.572L230.821 466.217L214.818 477.307L213.447 476.791L214.049 475.192ZM214.384 477.144L215.063 475.339L225.711 479.345L225.032 481.15L214.384 477.144Z" fill="white" fill-opacity="0.4"/>
<path d="M207.697 474.249L215.254 458.162L217.387 459.164L209.83 475.251L207.697 474.249ZM197.986 469.687L208.194 465.325L213.783 463.189L213.067 465.631L208.775 467.418L200.549 470.891L197.986 469.687ZM207.597 454.565L209.868 465.207L207.803 466.301L205.056 453.372L207.597 454.565Z" fill="white" fill-opacity="0.4"/>
<path d="M187.297 448.014C187.077 448.367 186.939 448.712 186.881 449.05C186.813 449.391 186.844 449.756 186.976 450.145C187.1 450.529 187.335 450.968 187.68 451.461C188.018 451.95 188.478 452.519 189.06 453.17C189.668 453.856 190.189 454.521 190.622 455.164C191.051 455.815 191.369 456.45 191.578 457.069C191.787 457.688 191.863 458.297 191.807 458.895C191.75 459.493 191.539 460.085 191.174 460.672C190.808 461.259 190.349 461.726 189.797 462.073C189.246 462.419 188.631 462.636 187.954 462.722C187.266 462.811 186.543 462.763 185.785 462.578C185.028 462.394 184.262 462.061 183.489 461.578C182.356 460.873 181.532 460.057 181.015 459.131C180.488 458.208 180.235 457.268 180.255 456.312C180.271 455.363 180.524 454.495 181.015 453.708L183.004 454.948C182.651 455.514 182.46 456.09 182.431 456.676C182.397 457.268 182.548 457.842 182.883 458.396C183.214 458.957 183.756 459.472 184.509 459.942C185.22 460.385 185.874 460.644 186.47 460.718C187.066 460.792 187.592 460.718 188.048 460.494C188.498 460.265 188.869 459.916 189.161 459.447C189.359 459.129 189.474 458.798 189.507 458.454C189.528 458.112 189.466 457.743 189.32 457.345C189.168 456.943 188.929 456.511 188.603 456.049C188.27 455.583 187.847 455.07 187.333 454.51C186.627 453.735 186.056 453.005 185.62 452.32C185.183 451.636 184.881 450.982 184.713 450.36C184.534 449.74 184.494 449.135 184.593 448.544C184.681 447.957 184.908 447.37 185.274 446.783C185.657 446.168 186.128 445.689 186.686 445.347C187.245 445.005 187.865 444.802 188.548 444.738C189.23 444.674 189.956 444.748 190.726 444.959C191.484 445.173 192.26 445.527 193.055 446.022C193.752 446.457 194.379 446.982 194.935 447.597C195.485 448.208 195.915 448.879 196.227 449.61C196.531 450.337 196.673 451.087 196.651 451.86C196.619 452.636 196.368 453.4 195.899 454.152L193.91 452.913C194.232 452.395 194.41 451.887 194.442 451.389C194.47 450.898 194.387 450.424 194.192 449.967C193.99 449.506 193.705 449.079 193.336 448.686C192.956 448.296 192.524 447.95 192.041 447.649C191.343 447.214 190.693 446.943 190.089 446.835C189.485 446.727 188.947 446.775 188.474 446.979C187.995 447.179 187.602 447.524 187.297 448.014Z" fill="white" fill-opacity="0.4"/>
<path d="M177.684 448.93L184.119 440.528L185.921 441.908L177.891 452.395L176.185 451.088L177.684 448.93ZM180.168 446.45L180.979 447.118C180.423 447.83 179.822 448.42 179.176 448.889C178.525 449.365 177.849 449.692 177.147 449.872C176.446 450.053 175.736 450.063 175.018 449.902C174.295 449.749 173.585 449.405 172.887 448.87C172.396 448.494 171.998 448.077 171.694 447.618C171.384 447.166 171.191 446.675 171.115 446.145C171.039 445.615 171.095 445.053 171.283 444.46C171.471 443.866 171.818 443.239 172.323 442.58L177.673 435.592L179.466 436.965L174.182 443.866C173.762 444.415 173.519 444.926 173.454 445.399C173.383 445.867 173.458 446.304 173.68 446.71C173.897 447.123 174.232 447.502 174.685 447.848C175.214 448.254 175.729 448.499 176.228 448.584C176.726 448.669 177.209 448.628 177.674 448.462C178.14 448.295 178.584 448.036 179.008 447.684C179.42 447.333 179.806 446.922 180.168 446.45ZM172.616 442.236L174.1 442.788C173.654 443.359 173.137 443.839 172.55 444.231C171.957 444.617 171.328 444.883 170.662 445.03C169.99 445.171 169.304 445.163 168.604 445.007C167.899 444.856 167.214 444.526 166.549 444.017C165.986 443.586 165.546 443.131 165.227 442.651C164.901 442.166 164.708 441.655 164.649 441.117C164.578 440.581 164.648 440.014 164.859 439.417C165.07 438.82 165.428 438.192 165.932 437.533L171.209 430.642L173.011 432.023L167.72 438.933C167.27 439.521 167.015 440.048 166.955 440.515C166.883 440.983 166.966 441.41 167.203 441.797C167.429 442.185 167.771 442.554 168.23 442.906C168.624 443.207 169.025 443.407 169.432 443.504C169.84 443.6 170.239 443.608 170.628 443.528C171.013 443.453 171.377 443.306 171.719 443.087C172.055 442.862 172.354 442.579 172.616 442.236Z" fill="white" fill-opacity="0.4"/>
<path d="M161.388 424.552L156.754 429.527C156.399 429.908 156.168 430.311 156.062 430.735C155.945 431.16 155.966 431.591 156.125 432.029C156.285 432.466 156.588 432.893 157.035 433.309C157.451 433.697 157.884 433.967 158.333 434.118C158.776 434.264 159.194 434.304 159.589 434.238C159.978 434.166 160.298 433.997 160.547 433.729L162.2 435.268C161.878 435.613 161.47 435.873 160.975 436.046C160.48 436.219 159.938 436.287 159.35 436.25C158.75 436.214 158.14 436.057 157.519 435.779C156.888 435.502 156.28 435.092 155.697 434.548C154.994 433.894 154.485 433.198 154.171 432.461C153.851 431.718 153.764 430.963 153.91 430.198C154.044 429.433 154.447 428.691 155.118 427.97L159.311 423.468C159.611 423.147 159.903 422.78 160.188 422.366C160.467 421.948 160.671 421.555 160.802 421.187L160.935 421.044L162.659 422.65C162.565 422.918 162.395 423.232 162.149 423.592C161.897 423.958 161.643 424.278 161.388 424.552ZM157.183 428.493L158.247 427.315L159.917 428.871C160.388 429.309 160.844 429.662 161.285 429.928C161.721 430.201 162.133 430.379 162.522 430.463C162.911 430.547 163.276 430.537 163.618 430.433C163.954 430.334 164.261 430.136 164.538 429.839C164.821 429.535 165.01 429.194 165.106 428.817C165.202 428.439 165.183 428.048 165.048 427.644C164.901 427.24 164.625 426.85 164.22 426.473C163.714 426.001 163.167 425.693 162.581 425.546C161.994 425.4 161.443 425.377 160.928 425.475C160.408 425.569 160.003 425.753 159.713 426.028L159.748 424.576C160.023 424.365 160.394 424.193 160.861 424.061C161.329 423.93 161.847 423.868 162.418 423.877C162.977 423.886 163.553 423.995 164.148 424.204C164.731 424.414 165.285 424.762 165.809 425.251C166.464 425.861 166.92 426.524 167.175 427.24C167.425 427.951 167.487 428.649 167.362 429.333C167.225 430.017 166.907 430.627 166.407 431.163C165.925 431.681 165.399 432.042 164.831 432.247C164.257 432.457 163.657 432.516 163.032 432.423C162.401 432.336 161.754 432.111 161.09 431.749C160.427 431.387 159.765 430.898 159.104 430.282L157.183 428.493Z" fill="white" fill-opacity="0.4"/>
<path d="M149.461 425.166L157.507 417.472L159.068 419.104L149.522 428.232L148.003 426.644L149.461 425.166ZM145.057 423.669L146.582 422.226C146.682 422.39 146.789 422.536 146.901 422.665C147.001 422.794 147.125 422.935 147.271 423.088C147.631 423.464 148.008 423.74 148.401 423.916C148.794 424.092 149.192 424.178 149.595 424.176C149.998 424.173 150.403 424.09 150.81 423.927C151.205 423.763 151.593 423.533 151.973 423.236L152.677 423.442C152.1 423.993 151.506 424.455 150.893 424.827C150.275 425.193 149.656 425.441 149.037 425.571C148.413 425.706 147.814 425.693 147.242 425.531C146.659 425.368 146.12 425.028 145.625 424.51C145.512 424.393 145.398 424.243 145.281 424.062C145.158 423.887 145.083 423.756 145.057 423.669Z" fill="white" fill-opacity="0.4"/>
<path d="M139.674 417.451L140.98 416.312L145.672 421.695L144.366 422.834L139.674 417.451ZM140.358 423.122L138.874 421.419L148.784 412.781C149.122 412.487 149.331 412.213 149.412 411.959C149.493 411.705 149.488 411.471 149.399 411.257C149.31 411.043 149.183 410.841 149.017 410.651C148.894 410.51 148.753 410.374 148.595 410.242C148.425 410.109 148.297 410.011 148.209 409.947L149.59 408.726C149.751 408.824 149.946 408.967 150.175 409.156C150.405 409.333 150.654 409.575 150.921 409.882C151.285 410.299 151.536 410.755 151.675 411.249C151.814 411.743 151.782 412.263 151.577 412.808C151.361 413.353 150.922 413.914 150.259 414.491L140.358 423.122Z" fill="white" fill-opacity="0.4"/>
<path d="M139.323 398.142C139.01 397.705 138.632 397.365 138.188 397.123C137.744 396.88 137.281 396.751 136.8 396.735C136.312 396.725 135.854 396.847 135.426 397.103L134.176 395.356C134.835 394.934 135.581 394.725 136.414 394.729C137.236 394.731 138.044 394.929 138.836 395.323C139.621 395.721 140.287 396.3 140.832 397.061C141.41 397.869 141.772 398.675 141.918 399.481C142.06 400.28 142.025 401.056 141.813 401.808C141.596 402.554 141.238 403.256 140.739 403.914C140.227 404.57 139.611 405.157 138.89 405.673L138.473 405.971C137.752 406.488 137.002 406.88 136.223 407.147C135.432 407.413 134.649 407.529 133.873 407.494C133.093 407.452 132.347 407.235 131.636 406.843C130.92 406.445 130.273 405.842 129.695 405.035C129.094 404.195 128.74 403.337 128.634 402.462C128.521 401.592 128.632 400.767 128.965 399.988C129.286 399.207 129.806 398.535 130.523 397.971L131.774 399.718C131.354 400.069 131.044 400.481 130.843 400.955C130.637 401.423 130.561 401.918 130.615 402.44C130.657 402.96 130.853 403.465 131.204 403.955C131.607 404.517 132.058 404.91 132.558 405.132C133.046 405.353 133.559 405.441 134.098 405.396C134.625 405.349 135.152 405.212 135.679 404.984C136.196 404.755 136.689 404.472 137.159 404.135L137.575 403.837C138.045 403.5 138.475 403.122 138.865 402.703C139.256 402.283 139.558 401.832 139.772 401.348C139.982 400.858 140.064 400.344 140.019 399.805C139.962 399.265 139.73 398.711 139.323 398.142Z" fill="white" fill-opacity="0.4"/>
<path d="M130.829 394.53L130.589 394.675C129.775 395.169 128.948 395.509 128.109 395.695C127.263 395.885 126.447 395.914 125.662 395.781C124.87 395.653 124.139 395.359 123.47 394.899C122.793 394.443 122.216 393.822 121.739 393.036C121.258 392.243 120.971 391.441 120.879 390.631C120.776 389.818 120.85 389.03 121.101 388.268C121.341 387.504 121.741 386.79 122.3 386.127C122.852 385.468 123.535 384.891 124.349 384.397L124.589 384.252C125.403 383.757 126.229 383.417 127.069 383.232C127.908 383.046 128.726 383.021 129.522 383.156C130.307 383.289 131.038 383.583 131.714 384.039C132.38 384.492 132.953 385.115 133.434 385.908C133.916 386.701 134.206 387.5 134.305 388.306C134.397 389.117 134.323 389.904 134.083 390.669C133.831 391.431 133.43 392.141 132.878 392.8C132.326 393.459 131.643 394.036 130.829 394.53ZM129.417 392.745L129.657 392.599C130.22 392.257 130.712 391.868 131.133 391.432C131.547 391 131.864 390.535 132.087 390.039C132.305 389.535 132.402 389.014 132.38 388.476C132.351 387.941 132.173 387.406 131.848 386.87C131.527 386.342 131.139 385.945 130.682 385.679C130.215 385.411 129.709 385.261 129.166 385.228C128.623 385.196 128.065 385.264 127.49 385.432C126.905 385.597 126.331 385.85 125.767 386.192L125.527 386.338C124.971 386.676 124.488 387.064 124.078 387.503C123.658 387.94 123.338 388.409 123.121 388.913C122.891 389.414 122.788 389.934 122.81 390.472C122.829 391.004 123 391.538 123.325 392.073C123.646 392.602 124.041 393 124.508 393.269C124.971 393.53 125.48 393.678 126.035 393.713C126.578 393.745 127.14 393.675 127.721 393.503C128.295 393.336 128.86 393.083 129.417 392.745Z" fill="white" fill-opacity="0.4"/>
<path d="M118.054 380.371L127.33 375.697L128.347 377.714L116.552 383.657L115.59 381.749L118.054 380.371ZM121.228 379.373L121.618 380.229C120.808 380.629 120.002 380.884 119.202 380.996C118.394 381.111 117.63 381.086 116.909 380.921C116.188 380.756 115.543 380.452 114.973 380.01C114.393 379.564 113.924 378.985 113.565 378.273C113.272 377.691 113.088 377.128 113.014 376.582C112.932 376.04 112.98 375.519 113.156 375.02C113.329 374.514 113.645 374.036 114.102 373.587C114.552 373.142 115.165 372.723 115.943 372.331L123.672 368.437L124.694 370.464L116.943 374.37C116.325 374.681 115.877 375.021 115.598 375.389C115.311 375.762 115.173 376.164 115.181 376.597C115.183 377.034 115.311 377.507 115.568 378.015C115.82 378.517 116.156 378.922 116.576 379.23C116.992 379.53 117.46 379.736 117.981 379.848C118.498 379.952 119.039 379.966 119.602 379.892C120.155 379.814 120.697 379.641 121.228 379.373Z" fill="white" fill-opacity="0.4"/>
<path d="M108.155 365.87L109.747 365.184L112.575 371.741L110.983 372.427L108.155 365.87ZM107.078 371.479L106.184 369.406L118.256 364.199C118.667 364.022 118.95 363.825 119.104 363.608C119.259 363.39 119.326 363.166 119.306 362.936C119.286 362.705 119.227 362.474 119.127 362.242C119.053 362.07 118.96 361.897 118.85 361.723C118.729 361.545 118.636 361.412 118.572 361.325L120.259 360.584C120.383 360.725 120.525 360.921 120.685 361.171C120.851 361.41 121.014 361.716 121.175 362.09C121.394 362.598 121.494 363.109 121.476 363.621C121.458 364.134 121.269 364.619 120.907 365.077C120.536 365.529 119.946 365.93 119.139 366.278L107.078 371.479Z" fill="white" fill-opacity="0.4"/>
<path d="M107.793 359.284L118.216 355.372L119.01 357.487L106.644 362.128L105.872 360.07L107.793 359.284ZM104.332 356.176L106.302 355.45C106.33 355.639 106.37 355.816 106.422 355.978C106.464 356.137 106.522 356.315 106.597 356.513C106.78 357 107.017 357.402 107.31 357.718C107.602 358.035 107.934 358.271 108.306 358.427C108.677 358.583 109.082 358.666 109.52 358.675C109.948 358.68 110.395 358.621 110.862 358.498L111.428 358.963C110.681 359.243 109.953 359.434 109.244 359.535C108.531 359.629 107.865 359.614 107.245 359.49C106.617 359.369 106.072 359.122 105.61 358.747C105.138 358.369 104.775 357.844 104.524 357.173C104.467 357.021 104.42 356.839 104.384 356.626C104.34 356.417 104.323 356.267 104.332 356.176Z" fill="white" fill-opacity="0.4"/>
<path d="M111.655 342.994L105.16 345.004C104.662 345.158 104.262 345.392 103.959 345.708C103.646 346.017 103.45 346.402 103.371 346.861C103.291 347.32 103.342 347.841 103.522 348.424C103.691 348.968 103.932 349.417 104.246 349.772C104.558 350.118 104.901 350.361 105.277 350.501C105.65 350.632 106.011 350.644 106.361 350.536L107.028 352.693C106.578 352.833 106.094 352.854 105.579 352.758C105.064 352.662 104.56 352.452 104.068 352.127C103.565 351.797 103.114 351.357 102.714 350.808C102.304 350.254 101.981 349.595 101.745 348.833C101.461 347.916 101.366 347.059 101.461 346.264C101.553 345.46 101.852 344.762 102.359 344.171C102.856 343.574 103.575 343.13 104.516 342.839L110.393 341.02C110.813 340.891 111.249 340.717 111.702 340.5C112.152 340.276 112.525 340.037 112.821 339.783L113.008 339.726L113.705 341.976C113.489 342.162 113.186 342.35 112.793 342.54C112.392 342.732 112.013 342.883 111.655 342.994ZM106.047 344.32L107.556 343.828L108.231 346.009C108.421 346.623 108.641 347.155 108.891 347.606C109.134 348.059 109.403 348.419 109.698 348.685C109.994 348.952 110.316 349.124 110.664 349.204C111.004 349.286 111.369 349.267 111.758 349.147C112.154 349.024 112.488 348.823 112.759 348.543C113.031 348.263 113.208 347.914 113.292 347.496C113.365 347.073 113.32 346.597 113.157 346.069C112.952 345.408 112.632 344.868 112.195 344.449C111.759 344.031 111.293 343.736 110.797 343.566C110.299 343.388 109.856 343.346 109.468 343.441L110.221 342.198C110.564 342.152 110.971 342.187 111.443 342.306C111.914 342.424 112.394 342.629 112.885 342.92C113.365 343.206 113.811 343.587 114.223 344.065C114.625 344.537 114.931 345.115 115.143 345.799C115.408 346.654 115.473 347.456 115.338 348.205C115.201 348.946 114.908 349.582 114.459 350.113C114 350.638 113.42 351.009 112.721 351.226C112.044 351.435 111.409 351.487 110.814 351.381C110.211 351.278 109.662 351.031 109.166 350.639C108.662 350.25 108.212 349.733 107.817 349.088C107.422 348.444 107.09 347.69 106.823 346.827L106.047 344.32Z" fill="white" fill-opacity="0.4"/>
<path d="M109.447 331.986C109.326 331.463 109.107 331.004 108.791 330.609C108.474 330.214 108.097 329.917 107.658 329.718C107.211 329.52 106.742 329.458 106.249 329.53L105.766 327.436C106.536 327.3 107.305 327.394 108.073 327.718C108.831 328.036 109.501 328.528 110.081 329.196C110.653 329.866 111.044 330.657 111.255 331.569C111.478 332.536 111.503 333.42 111.328 334.22C111.152 335.013 110.821 335.715 110.337 336.328C109.85 336.933 109.249 337.444 108.535 337.859C107.811 338.269 107.017 338.573 106.153 338.773L105.653 338.888C104.789 339.087 103.946 339.161 103.123 339.109C102.291 339.05 101.524 338.856 100.821 338.525C100.117 338.187 99.5115 337.7 99.0058 337.065C98.4983 336.422 98.1328 335.617 97.9095 334.65C97.677 333.643 97.68 332.715 97.9184 331.866C98.1489 331.02 98.5676 330.301 99.1744 329.71C99.7716 329.112 100.51 328.691 101.389 328.447L101.872 330.54C101.35 330.702 100.905 330.964 100.537 331.324C100.167 331.677 99.9069 332.105 99.7557 332.607C99.5947 333.104 99.5819 333.645 99.7174 334.232C99.873 334.906 100.139 335.442 100.514 335.84C100.88 336.231 101.321 336.51 101.835 336.675C102.339 336.834 102.879 336.91 103.453 336.903C104.018 336.889 104.582 336.817 105.145 336.687L105.645 336.572C106.208 336.442 106.75 336.259 107.271 336.021C107.793 335.784 108.246 335.483 108.629 335.119C109.011 334.747 109.284 334.304 109.45 333.789C109.605 333.269 109.604 332.668 109.447 331.986Z" fill="white" fill-opacity="0.4"/>
<path d="M95.441 320.707L97.1498 320.416L98.3478 327.456L96.639 327.747L95.441 320.707ZM93.0685 325.903L92.6897 323.676L105.65 321.471C106.092 321.396 106.413 321.271 106.614 321.096C106.816 320.922 106.934 320.72 106.969 320.491C107.005 320.262 107.001 320.023 106.959 319.775C106.928 319.59 106.879 319.4 106.813 319.205C106.737 319.003 106.678 318.852 106.636 318.752L108.452 318.431C108.538 318.598 108.629 318.822 108.727 319.102C108.831 319.374 108.917 319.71 108.985 320.111C109.078 320.656 109.055 321.176 108.916 321.67C108.777 322.165 108.478 322.591 108.019 322.95C107.551 323.302 106.884 323.552 106.017 323.699L93.0685 325.903Z" fill="white" fill-opacity="0.4"/>
<path d="M104.459 298.313L106.37 298.172L107.027 307.034L105.116 307.176L104.459 298.313ZM89.2682 307.886L106.993 306.571L107.167 308.921L89.4425 310.236L89.2682 307.886Z" fill="white" fill-opacity="0.4"/>
<path d="M88.4031 288.248L106.274 288.289L106.269 290.547L91.2178 290.512L92.8674 295.069L90.8289 295.065L88.4023 288.602L88.4031 288.248Z" fill="white" fill-opacity="0.4"/>
<path d="M89.4389 270.441L107.135 272.1L106.915 274.445L89.2191 272.787L89.4389 270.441Z" fill="white" fill-opacity="0.4"/>
<path d="M101.016 267.55L100.739 267.507C99.7978 267.363 98.946 267.093 98.1835 266.696C97.4129 266.298 96.7694 265.796 96.2531 265.19C95.7286 264.583 95.3576 263.888 95.14 263.105C94.9143 262.321 94.8711 261.475 95.0104 260.566C95.1509 259.649 95.4461 258.85 95.8962 258.17C96.3394 257.481 96.9021 256.925 97.5843 256.502C98.2597 256.071 99.0245 255.78 99.8789 255.631C100.725 255.481 101.619 255.478 102.56 255.622L102.838 255.665C103.779 255.809 104.631 256.079 105.393 256.476C106.156 256.873 106.799 257.379 107.322 257.994C107.838 258.6 108.209 259.295 108.435 260.079C108.654 260.854 108.693 261.699 108.552 262.616C108.412 263.533 108.121 264.333 107.679 265.014C107.229 265.694 106.666 266.25 105.99 266.682C105.308 267.104 104.544 267.391 103.698 267.541C102.851 267.691 101.958 267.694 101.016 267.55ZM101.081 265.275L101.359 265.318C102.01 265.418 102.637 265.435 103.24 265.371C103.834 265.306 104.376 265.154 104.866 264.917C105.356 264.671 105.766 264.334 106.095 263.907C106.415 263.479 106.623 262.955 106.718 262.335C106.812 261.724 106.769 261.17 106.59 260.673C106.404 260.167 106.113 259.727 105.718 259.354C105.322 258.981 104.851 258.674 104.303 258.433C103.748 258.184 103.145 258.009 102.494 257.909L102.216 257.867C101.573 257.768 100.953 257.755 100.357 257.829C99.7547 257.893 99.2081 258.048 98.7176 258.294C98.2203 258.53 97.8072 258.862 97.4783 259.289C97.1506 259.708 96.9393 260.228 96.8444 260.847C96.7507 261.458 96.7969 262.017 96.9828 262.523C97.1699 263.021 97.4647 263.461 97.8671 263.844C98.2627 264.218 98.7384 264.525 99.2941 264.767C99.8419 265.007 100.437 265.177 101.081 265.275Z" fill="white" fill-opacity="0.4"/>
<path d="M93.9672 243.229L111.275 247.271L110.747 249.53L93.4397 245.487L93.9672 243.229ZM95.2665 237.665L97.1447 238.104L94.0213 251.477L92.1431 251.038L95.2665 237.665Z" fill="white" fill-opacity="0.4"/>
<path d="M114.148 211.147L120.165 213.62C120.383 213.947 120.589 214.41 120.782 215.009C120.969 215.605 121.04 216.351 120.997 217.249C120.949 218.135 120.673 219.192 120.169 220.419C119.757 221.42 119.205 222.271 118.512 222.972C117.815 223.662 117.005 224.178 116.081 224.519C115.153 224.851 114.138 224.988 113.035 224.93C111.928 224.862 110.761 224.576 109.534 224.072L108.258 223.547C107.031 223.043 105.995 222.45 105.149 221.768C104.306 221.078 103.666 220.313 103.228 219.474C102.783 218.631 102.556 217.728 102.547 216.765C102.53 215.799 102.74 214.786 103.176 213.724C103.693 212.467 104.343 211.507 105.126 210.843C105.905 210.169 106.772 209.751 107.727 209.59C108.685 209.42 109.677 209.468 110.704 209.731L109.808 211.91C109.173 211.764 108.551 211.737 107.941 211.829C107.334 211.914 106.774 212.163 106.261 212.577C105.74 212.988 105.307 213.615 104.96 214.458C104.648 215.218 104.516 215.934 104.566 216.605C104.615 217.277 104.825 217.9 105.196 218.474C105.567 219.049 106.084 219.579 106.748 220.062C107.414 220.539 108.21 220.967 109.136 221.348L110.434 221.881C111.383 222.271 112.274 222.51 113.109 222.598C113.947 222.679 114.715 222.62 115.412 222.423C116.101 222.222 116.699 221.892 117.205 221.431C117.715 220.963 118.113 220.379 118.401 219.679C118.72 218.904 118.914 218.249 118.984 217.715C119.046 217.177 119.043 216.736 118.974 216.391C118.897 216.042 118.805 215.763 118.698 215.552L115.018 214.039L113.454 217.843L111.692 217.119L114.148 211.147Z" fill="white" fill-opacity="0.4"/>
<path d="M125.42 203.247L119.368 200.147C118.904 199.91 118.454 199.798 118.017 199.812C117.577 199.815 117.168 199.953 116.79 200.226C116.413 200.499 116.085 200.907 115.807 201.45C115.547 201.957 115.406 202.447 115.383 202.92C115.364 203.386 115.44 203.8 115.611 204.162C115.786 204.516 116.037 204.777 116.363 204.944L115.333 206.954C114.913 206.739 114.552 206.417 114.251 205.988C113.949 205.56 113.736 205.057 113.61 204.481C113.481 203.894 113.465 203.264 113.563 202.591C113.657 201.908 113.886 201.211 114.249 200.502C114.687 199.647 115.218 198.968 115.841 198.464C116.468 197.954 117.17 197.664 117.946 197.595C118.718 197.515 119.543 197.699 120.419 198.148L125.895 200.953C126.286 201.153 126.719 201.334 127.195 201.495C127.674 201.649 128.108 201.738 128.497 201.764L128.671 201.853L127.597 203.95C127.313 203.933 126.964 203.855 126.551 203.716C126.13 203.574 125.753 203.417 125.42 203.247ZM120.48 200.278L121.904 200.98L120.863 203.011C120.57 203.584 120.356 204.118 120.22 204.616C120.077 205.109 120.018 205.555 120.043 205.952C120.069 206.349 120.178 206.697 120.372 206.997C120.558 207.294 120.832 207.535 121.195 207.721C121.564 207.91 121.943 207.999 122.333 207.988C122.723 207.977 123.093 207.852 123.445 207.611C123.793 207.36 124.093 206.988 124.346 206.495C124.661 205.88 124.809 205.27 124.789 204.665C124.77 204.061 124.642 203.525 124.406 203.057C124.174 202.581 123.886 202.242 123.543 202.038L124.949 201.675C125.227 201.882 125.494 202.192 125.748 202.606C126.003 203.019 126.203 203.502 126.351 204.053C126.495 204.593 126.548 205.177 126.509 205.807C126.466 206.425 126.282 207.053 125.956 207.69C125.547 208.487 125.034 209.106 124.414 209.548C123.799 209.982 123.145 210.233 122.453 210.299C121.757 210.354 121.083 210.214 120.431 209.881C119.801 209.558 119.31 209.151 118.958 208.66C118.599 208.165 118.379 207.604 118.297 206.977C118.209 206.347 118.248 205.663 118.416 204.926C118.583 204.189 118.872 203.418 119.284 202.614L120.48 200.278Z" fill="white" fill-opacity="0.4"/>
<path d="M121.661 192.562L130.599 198.229L129.383 200.146L118.228 193.075L119.379 191.26L121.661 192.562ZM124.35 194.817L123.757 195.684C122.999 195.193 122.358 194.647 121.833 194.045C121.303 193.438 120.916 192.794 120.675 192.111C120.433 191.428 120.361 190.722 120.457 189.992C120.546 189.259 120.826 188.521 121.297 187.779C121.628 187.256 122.008 186.823 122.438 186.479C122.862 186.131 123.334 185.895 123.855 185.773C124.376 185.65 124.94 185.656 125.548 185.791C126.157 185.926 126.811 186.216 127.512 186.66L134.946 191.373L133.736 193.28L126.396 188.626C125.812 188.256 125.281 188.059 124.804 188.037C124.332 188.007 123.903 188.121 123.518 188.378C123.127 188.631 122.779 188.998 122.474 189.479C122.116 190.042 121.917 190.576 121.877 191.081C121.837 191.585 121.92 192.062 122.127 192.511C122.333 192.96 122.631 193.38 123.019 193.77C123.405 194.15 123.849 194.499 124.35 194.817ZM127.881 186.923L127.462 188.45C126.855 188.055 126.33 187.583 125.888 187.033C125.451 186.476 125.13 185.873 124.926 185.223C124.726 184.566 124.673 183.882 124.767 183.171C124.854 182.456 125.122 181.744 125.571 181.036C125.95 180.438 126.365 179.959 126.815 179.599C127.269 179.231 127.762 178.994 128.292 178.887C128.82 178.769 129.39 178.789 130.003 178.946C130.617 179.104 131.274 179.405 131.975 179.849L139.305 184.496L138.089 186.414L130.739 181.754C130.113 181.357 129.565 181.15 129.095 181.131C128.623 181.101 128.204 181.221 127.84 181.492C127.474 181.751 127.136 182.124 126.827 182.612C126.561 183.032 126.398 183.448 126.337 183.863C126.277 184.278 126.304 184.675 126.419 185.057C126.527 185.433 126.705 185.783 126.954 186.104C127.208 186.419 127.516 186.692 127.881 186.923Z" fill="white" fill-opacity="0.4"/>
<path d="M132.41 171.85L142.989 179.758L141.629 181.577L131.051 173.669L132.41 171.85ZM128.142 171.708C127.849 171.489 127.667 171.216 127.596 170.889C127.531 170.555 127.63 170.212 127.893 169.86C128.151 169.515 128.449 169.326 128.788 169.295C129.131 169.257 129.45 169.348 129.743 169.567C130.023 169.776 130.194 170.051 130.254 170.391C130.313 170.72 130.214 171.057 129.956 171.402C129.693 171.754 129.395 171.949 129.063 171.985C128.729 172.01 128.422 171.918 128.142 171.708Z" fill="white" fill-opacity="0.4"/>
<path d="M138.928 168.022L146.901 174.682L145.453 176.415L135.317 167.948L136.686 166.308L138.928 168.022ZM141.104 170.54L140.473 171.237C139.785 170.652 139.231 170.014 138.811 169.324C138.385 168.629 138.104 167.917 137.97 167.19C137.835 166.462 137.858 165.749 138.038 165.052C138.217 164.342 138.562 163.681 139.073 163.069C139.491 162.57 139.935 162.177 140.406 161.893C140.871 161.602 141.368 161.439 141.897 161.404C142.43 161.361 142.994 161.461 143.587 161.702C144.175 161.939 144.802 162.336 145.471 162.894L152.113 168.443L150.657 170.185L143.996 164.621C143.466 164.178 142.976 163.901 142.527 163.791C142.071 163.676 141.647 163.708 141.253 163.888C140.852 164.062 140.47 164.368 140.104 164.806C139.744 165.236 139.506 165.706 139.39 166.213C139.279 166.714 139.276 167.226 139.38 167.748C139.49 168.264 139.691 168.766 139.984 169.254C140.275 169.73 140.648 170.159 141.104 170.54Z" fill="white" fill-opacity="0.4"/>
<path d="M150.872 150.533L152.305 149.066L161.557 158.093C162.39 158.906 162.936 159.768 163.195 160.68C163.453 161.592 163.439 162.499 163.151 163.4C162.874 164.301 162.352 165.145 161.585 165.931C161.266 166.257 160.839 166.591 160.302 166.931C159.777 167.271 159.184 167.535 158.525 167.721C157.877 167.908 157.21 167.945 156.524 167.832L156.389 166.047C157.254 166.117 157.989 166.027 158.596 165.778C159.209 165.523 159.722 165.183 160.137 164.758C160.637 164.245 160.973 163.709 161.145 163.148C161.316 162.588 161.312 162.021 161.132 161.448C160.964 160.875 160.606 160.321 160.059 159.786L152.807 152.711L150.872 150.533ZM149.353 161.757L149.17 161.578C148.447 160.873 147.874 160.149 147.451 159.406C147.027 158.652 146.759 157.907 146.647 157.172C146.54 156.431 146.597 155.719 146.819 155.038C147.035 154.35 147.424 153.718 147.987 153.141C148.567 152.547 149.177 152.131 149.819 151.893C150.46 151.643 151.13 151.558 151.827 151.635C152.524 151.701 153.237 151.914 153.967 152.274C154.697 152.633 155.445 153.119 156.212 153.731L157.016 154.515C157.647 155.255 158.148 155.989 158.519 156.715C158.896 157.436 159.127 158.143 159.21 158.839C159.299 159.528 159.23 160.2 159.002 160.853C158.768 161.5 158.358 162.124 157.773 162.724C157.222 163.289 156.602 163.685 155.914 163.912C155.232 164.133 154.517 164.197 153.767 164.102C153.018 164.008 152.267 163.764 151.514 163.37C150.761 162.965 150.04 162.427 149.353 161.757ZM150.747 159.961L150.93 160.14C151.402 160.601 151.89 160.986 152.395 161.296C152.905 161.601 153.414 161.808 153.922 161.916C154.435 162.02 154.936 162.002 155.423 161.863C155.905 161.719 156.359 161.429 156.785 160.992C157.308 160.456 157.626 159.903 157.74 159.332C157.854 158.76 157.824 158.191 157.65 157.624C157.482 157.05 157.236 156.492 156.913 155.949L154.807 153.895C154.424 153.646 154.019 153.444 153.591 153.288C153.163 153.121 152.73 153.028 152.293 153.011C151.855 152.982 151.419 153.05 150.983 153.217C150.548 153.383 150.131 153.67 149.733 154.078C149.302 154.521 149.022 154.993 148.896 155.495C148.77 155.986 148.768 156.49 148.889 157.006C149.01 157.511 149.232 158.018 149.555 158.526C149.878 159.023 150.275 159.501 150.747 159.961Z" fill="white" fill-opacity="0.4"/>
<path d="M177.203 144.839L174.253 147.091L173.109 145.552L176.04 143.316C177.049 142.546 177.73 141.694 178.082 140.76C178.429 139.819 178.479 138.839 178.233 137.819C177.988 136.787 177.473 135.757 176.688 134.729L176.029 133.865C175.412 133.056 174.767 132.412 174.094 131.933C173.416 131.447 172.724 131.13 172.018 130.983C171.307 130.83 170.594 130.847 169.878 131.035C169.168 131.219 168.464 131.577 167.765 132.11L164.582 134.539L163.412 133.006L166.595 130.577C167.52 129.871 168.483 129.382 169.483 129.11C170.478 128.831 171.473 128.773 172.467 128.936C173.463 129.087 174.423 129.46 175.348 130.055C176.268 130.643 177.118 131.448 177.898 132.47L178.542 133.314C179.322 134.336 179.877 135.372 180.206 136.42C180.531 137.463 180.631 138.486 180.508 139.492C180.391 140.492 180.056 141.449 179.504 142.362C178.953 143.263 178.186 144.089 177.203 144.839ZM164.47 132.199L175.252 146.328L173.379 147.757L162.597 133.628L164.47 132.199Z" fill="white" fill-opacity="0.4"/>
<path d="M179.45 121.383L189.297 136.179L187.336 137.484L177.489 122.688L179.45 121.383Z" fill="white" fill-opacity="0.4"/>
<path d="M195.969 131.988L192.761 133.854L191.819 132.185L195.005 130.332C196.103 129.693 196.884 128.933 197.35 128.05C197.812 127.16 197.984 126.194 197.867 125.151C197.753 124.097 197.371 123.011 196.72 121.892L196.174 120.953C195.662 120.074 195.103 119.354 194.495 118.795C193.883 118.228 193.236 117.828 192.554 117.594C191.867 117.353 191.157 117.281 190.423 117.378C189.696 117.472 188.953 117.739 188.193 118.181L184.732 120.194L183.762 118.527L187.223 116.514C188.229 115.929 189.245 115.564 190.272 115.419C191.294 115.266 192.289 115.333 193.255 115.618C194.224 115.893 195.13 116.382 195.973 117.088C196.812 117.786 197.555 118.691 198.202 119.802L198.736 120.72C199.382 121.832 199.803 122.928 199.999 124.01C200.191 125.084 200.163 126.113 199.915 127.095C199.674 128.073 199.223 128.98 198.561 129.817C197.902 130.643 197.038 131.366 195.969 131.988ZM184.912 117.858L193.848 133.222L191.811 134.406L182.876 119.042L184.912 117.858Z" fill="white" fill-opacity="0.4"/>
<path d="M207.79 105.846L214.829 122.166L212.665 123.099L205.627 106.779L207.79 105.846ZM217.794 110.239L218.558 112.01L211.25 115.162L210.486 113.391L217.794 110.239ZM215.738 102.418L216.502 104.189L208.083 107.82L207.32 106.049L215.738 102.418Z" fill="white" fill-opacity="0.4"/>
<path d="M221.602 105.154L226.197 117.537L224.069 118.327L219.474 105.944L221.602 105.154ZM218.095 102.719C217.967 102.376 217.963 102.048 218.081 101.735C218.207 101.419 218.476 101.185 218.888 101.032C219.292 100.882 219.645 100.885 219.946 101.043C220.255 101.197 220.473 101.446 220.601 101.789C220.723 102.117 220.717 102.441 220.583 102.759C220.455 103.067 220.188 103.297 219.784 103.447C219.372 103.6 219.016 103.601 218.718 103.452C218.424 103.291 218.216 103.047 218.095 102.719Z" fill="white" fill-opacity="0.4"/>
<path d="M229.327 105.409L232.398 115.333L230.241 116L226.336 103.382L228.377 102.751L229.327 105.409ZM229.785 108.704L228.876 108.947C228.617 108.082 228.498 107.245 228.521 106.438C228.541 105.622 228.692 104.872 228.975 104.189C229.257 103.505 229.664 102.919 230.194 102.431C230.73 101.933 231.379 101.566 232.141 101.33C232.763 101.138 233.349 101.05 233.9 101.067C234.448 101.077 234.953 101.21 235.416 101.467C235.887 101.722 236.306 102.112 236.673 102.637C237.037 103.155 237.348 103.829 237.606 104.661L240.164 112.929L237.995 113.6L235.43 105.309C235.225 104.648 234.964 104.15 234.647 103.813C234.328 103.469 233.954 103.265 233.525 103.202C233.094 103.131 232.607 103.18 232.063 103.348C231.526 103.514 231.071 103.778 230.698 104.141C230.332 104.501 230.052 104.929 229.856 105.424C229.667 105.917 229.563 106.447 229.543 107.016C229.528 107.574 229.609 108.137 229.785 108.704Z" fill="white" fill-opacity="0.4"/>
<path d="M250.364 108.101L248.834 101.476C248.717 100.969 248.512 100.552 248.22 100.227C247.934 99.8926 247.565 99.6687 247.113 99.5559C246.661 99.4431 246.138 99.4554 245.543 99.5927C244.988 99.7208 244.522 99.9285 244.146 100.216C243.777 100.501 243.51 100.826 243.343 101.19C243.185 101.553 243.147 101.912 243.229 102.269L241.029 102.777C240.923 102.317 240.936 101.834 241.07 101.327C241.203 100.82 241.45 100.333 241.81 99.8656C242.176 99.3886 242.647 98.9707 243.224 98.612C243.807 98.2436 244.487 97.9696 245.265 97.7902C246.2 97.5742 247.062 97.5424 247.848 97.6948C248.643 97.8454 249.317 98.1952 249.87 98.7441C250.428 99.2833 250.819 100.033 251.04 100.992L252.424 106.987C252.523 107.415 252.664 107.863 252.847 108.33C253.038 108.795 253.249 109.185 253.48 109.499L253.524 109.689L251.228 110.219C251.059 109.991 250.894 109.674 250.733 109.269C250.571 108.855 250.448 108.466 250.364 108.101ZM249.451 102.411L249.832 103.952L247.607 104.466C246.981 104.61 246.434 104.791 245.966 105.007C245.496 105.216 245.118 105.458 244.831 105.733C244.543 106.008 244.347 106.316 244.242 106.658C244.136 106.992 244.128 107.357 244.22 107.753C244.313 108.158 244.489 108.505 244.749 108.796C245.008 109.087 245.343 109.29 245.753 109.404C246.17 109.508 246.648 109.498 247.187 109.373C247.861 109.218 248.423 108.938 248.872 108.533C249.322 108.129 249.65 107.686 249.856 107.204C250.07 106.72 250.144 106.281 250.078 105.887L251.262 106.729C251.283 107.075 251.218 107.478 251.065 107.939C250.913 108.4 250.674 108.865 250.347 109.333C250.027 109.791 249.614 110.208 249.108 110.584C248.607 110.95 248.008 111.213 247.311 111.374C246.438 111.576 245.634 111.582 244.897 111.393C244.168 111.202 243.555 110.863 243.059 110.377C242.568 109.88 242.241 109.275 242.076 108.561C241.917 107.871 241.911 107.234 242.06 106.648C242.207 106.055 242.494 105.525 242.921 105.059C243.346 104.585 243.895 104.174 244.566 103.827C245.238 103.48 246.013 103.205 246.894 103.002L249.451 102.411Z" fill="white" fill-opacity="0.4"/>
<path d="M257.161 98.4786L258.754 108.744L256.522 109.09L254.496 96.0385L256.607 95.7109L257.161 98.4786ZM257.133 101.806L256.199 101.914C256.068 101.02 256.073 100.175 256.213 99.3792C256.352 98.5753 256.611 97.8557 256.99 97.2203C257.369 96.585 257.856 96.0646 258.452 95.6592C259.055 95.2444 259.75 94.9759 260.538 94.8536C261.182 94.7537 261.775 94.7523 262.317 94.8493C262.858 94.9383 263.338 95.1437 263.759 95.4655C264.187 95.786 264.545 96.2329 264.832 96.806C265.117 97.3712 265.326 98.0839 265.46 98.9444L266.788 107.497L264.544 107.845L263.213 99.2686C263.107 98.585 262.921 98.0538 262.656 97.6749C262.391 97.2879 262.05 97.0319 261.635 96.9069C261.22 96.7738 260.73 96.7509 260.167 96.8383C259.612 96.9244 259.124 97.1197 258.702 97.4241C258.287 97.7272 257.947 98.1094 257.681 98.5707C257.423 99.0308 257.243 99.5405 257.14 100.1C257.045 100.65 257.042 101.219 257.133 101.806Z" fill="white" fill-opacity="0.4"/>
<path d="M275.048 105.073C275.583 105.029 276.069 104.879 276.505 104.623C276.942 104.367 277.29 104.037 277.551 103.632C277.812 103.219 277.942 102.763 277.942 102.265L280.084 102.09C280.106 102.872 279.902 103.62 279.47 104.333C279.046 105.037 278.461 105.627 277.716 106.105C276.971 106.574 276.131 106.846 275.199 106.922C274.209 107.003 273.331 106.899 272.564 106.61C271.806 106.321 271.159 105.892 270.622 105.323C270.094 104.754 269.677 104.086 269.369 103.319C269.069 102.543 268.883 101.713 268.811 100.829L268.769 100.318C268.697 99.4337 268.747 98.5887 268.918 97.7827C269.097 96.968 269.4 96.237 269.829 95.5897C270.266 94.9417 270.836 94.4136 271.537 94.0053C272.247 93.5964 273.097 93.3516 274.086 93.271C275.116 93.1871 276.034 93.3246 276.839 93.6836C277.643 94.0345 278.294 94.553 278.79 95.2392C279.295 95.9166 279.604 96.7079 279.719 97.6131L277.577 97.7875C277.493 97.2474 277.298 96.7692 276.995 96.353C276.7 95.9362 276.315 95.6165 275.839 95.3939C275.371 95.1626 274.837 95.0714 274.237 95.1203C273.548 95.1765 272.979 95.3616 272.531 95.6757C272.09 95.9811 271.751 96.3762 271.513 96.861C271.282 97.337 271.129 97.8598 271.053 98.4294C270.984 98.9902 270.973 99.5585 271.02 100.134L271.062 100.645C271.109 101.221 271.212 101.784 271.371 102.335C271.53 102.885 271.762 103.377 272.067 103.809C272.38 104.241 272.778 104.576 273.263 104.814C273.755 105.043 274.35 105.13 275.048 105.073Z" fill="white" fill-opacity="0.4"/>
<path d="M288.881 106.305C287.961 106.313 287.126 106.166 286.375 105.863C285.631 105.552 284.989 105.114 284.447 104.549C283.913 103.984 283.5 103.312 283.209 102.533C282.917 101.755 282.767 100.901 282.759 99.9736L282.755 99.4609C282.746 98.3868 282.896 97.4292 283.206 96.5883C283.516 95.7392 283.941 95.0194 284.482 94.4288C285.022 93.8382 285.636 93.3893 286.326 93.0823C287.015 92.7752 287.729 92.6185 288.47 92.6121C289.414 92.604 290.229 92.7598 290.916 93.0794C291.61 93.3989 292.18 93.8498 292.624 94.4319C293.068 95.0059 293.4 95.6867 293.618 96.4742C293.837 97.2536 293.95 98.1071 293.958 99.0348L293.966 100.048L284.103 100.133L284.088 98.2898L291.692 98.2242L291.691 98.0534C291.653 97.4677 291.526 96.8991 291.31 96.3476C291.102 95.796 290.772 95.3431 290.322 94.9889C289.871 94.6347 289.259 94.4609 288.486 94.4675C287.973 94.472 287.502 94.5859 287.073 94.8093C286.643 95.0246 286.276 95.3452 285.97 95.771C285.665 96.1968 285.429 96.7156 285.263 97.3274C285.098 97.9392 285.018 98.6439 285.025 99.4414L285.03 99.9541C285.035 100.581 285.126 101.17 285.301 101.722C285.485 102.265 285.746 102.743 286.083 103.156C286.428 103.568 286.842 103.89 287.324 104.121C287.814 104.353 288.369 104.466 288.987 104.461C289.785 104.454 290.459 104.286 291.009 103.955C291.56 103.625 292.04 103.186 292.451 102.637L293.827 103.711C293.546 104.145 293.187 104.559 292.751 104.954C292.315 105.348 291.777 105.67 291.136 105.92C290.503 106.169 289.752 106.298 288.881 106.305Z" fill="white" fill-opacity="0.4"/>
<path d="M310.8 100.176L306.077 99.6813L306.277 97.7752L311 98.2701C311.914 98.3659 312.67 98.2979 313.267 98.0659C313.864 97.8338 314.319 97.4724 314.633 96.9816C314.954 96.4915 315.149 95.9147 315.219 95.251C315.283 94.644 315.209 94.0594 314.998 93.4972C314.795 92.9359 314.427 92.4637 313.894 92.0806C313.362 91.6893 312.639 91.4458 311.725 91.35L307.548 90.9124L305.897 106.671L303.554 106.425L305.406 88.7486L311.926 89.4318C313.261 89.5717 314.366 89.9207 315.24 90.4787C316.115 91.0367 316.748 91.7495 317.14 92.617C317.532 93.4764 317.674 94.4282 317.565 95.4723C317.446 96.6054 317.106 97.5476 316.544 98.2988C315.983 99.05 315.219 99.5878 314.252 99.9119C313.286 100.228 312.135 100.316 310.8 100.176Z" fill="white" fill-opacity="0.4"/>
<path d="M319.137 101.663L319.189 101.387C319.364 100.451 319.663 99.6087 320.084 98.8598C320.508 98.1028 321.031 97.4763 321.654 96.9803C322.278 96.4762 322.985 96.1284 323.774 95.9368C324.565 95.7371 325.412 95.722 326.316 95.8913C327.228 96.062 328.016 96.3836 328.681 96.8559C329.356 97.3217 329.893 97.9024 330.292 98.5982C330.701 99.2875 330.966 100.062 331.087 100.92C331.209 101.771 331.183 102.665 331.007 103.6L330.956 103.876C330.78 104.812 330.482 105.655 330.06 106.404C329.638 107.153 329.111 107.778 328.479 108.281C327.856 108.777 327.149 109.125 326.358 109.324C325.577 109.518 324.731 109.529 323.819 109.358C322.907 109.187 322.118 108.87 321.451 108.405C320.786 107.933 320.249 107.352 319.84 106.663C319.44 105.967 319.18 105.194 319.057 104.343C318.935 103.492 318.962 102.599 319.137 101.663ZM321.409 101.803L321.357 102.079C321.236 102.727 321.197 103.353 321.241 103.957C321.287 104.554 321.42 105.1 321.642 105.597C321.871 106.095 322.194 106.516 322.61 106.859C323.028 107.194 323.544 107.419 324.16 107.534C324.768 107.648 325.323 107.624 325.826 107.461C326.338 107.292 326.787 107.016 327.173 106.633C327.559 106.25 327.882 105.789 328.14 105.249C328.408 104.703 328.603 104.106 328.724 103.458L328.776 103.183C328.895 102.543 328.929 101.924 328.875 101.326C328.831 100.721 328.694 100.17 328.464 99.6717C328.244 99.1668 327.926 98.7429 327.51 98.4001C327.102 98.0587 326.59 97.8304 325.974 97.715C325.367 97.6012 324.807 97.6288 324.295 97.7978C323.791 97.9684 323.341 98.2485 322.945 98.638C322.559 99.021 322.236 99.4862 321.976 100.034C321.718 100.573 321.528 101.163 321.409 101.803Z" fill="white" fill-opacity="0.4"/>
<path d="M343.15 109.043C343.258 108.643 343.29 108.272 343.247 107.932C343.214 107.586 343.077 107.246 342.839 106.912C342.608 106.58 342.256 106.228 341.783 105.857C341.317 105.487 340.712 105.076 339.966 104.622C339.185 104.142 338.493 103.657 337.892 103.167C337.293 102.668 336.804 102.153 336.424 101.621C336.045 101.09 335.795 100.529 335.676 99.941C335.556 99.3526 335.586 98.7244 335.765 98.0564C335.945 97.3884 336.249 96.8085 336.676 96.3167C337.103 95.8248 337.628 95.4394 338.251 95.1603C338.884 94.8755 339.59 94.7114 340.368 94.668C341.147 94.6247 341.976 94.7214 342.856 94.9582C344.145 95.3049 345.171 95.8463 345.934 96.5824C346.706 97.3128 347.222 98.1383 347.48 99.0588C347.74 99.9715 347.749 100.876 347.508 101.772L345.245 101.163C345.418 100.518 345.434 99.9117 345.292 99.3426C345.152 98.7656 344.842 98.2607 344.36 97.8276C343.88 97.3868 343.212 97.0511 342.355 96.8207C341.546 96.6029 340.845 96.545 340.253 96.647C339.661 96.7489 339.179 96.9733 338.808 97.32C338.444 97.6689 338.191 98.1105 338.047 98.6449C337.95 99.0064 337.935 99.3565 338.004 99.6953C338.083 100.028 338.25 100.364 338.505 100.702C338.767 101.042 339.121 101.386 339.567 101.734C340.021 102.083 340.575 102.452 341.229 102.838C342.13 103.375 342.888 103.908 343.505 104.436C344.121 104.965 344.6 105.502 344.942 106.049C345.293 106.59 345.507 107.158 345.583 107.751C345.67 108.339 345.623 108.967 345.443 109.635C345.255 110.335 344.943 110.929 344.508 111.419C344.073 111.909 343.538 112.283 342.904 112.542C342.27 112.801 341.554 112.941 340.756 112.963C339.968 112.978 339.122 112.865 338.218 112.621C337.424 112.408 336.672 112.087 335.961 111.66C335.258 111.235 334.651 110.718 334.141 110.109C333.639 109.502 333.286 108.825 333.082 108.079C332.888 107.328 332.906 106.524 333.137 105.667L335.4 106.276C335.241 106.865 335.219 107.403 335.333 107.888C335.448 108.366 335.666 108.796 335.985 109.176C336.312 109.559 336.708 109.885 337.175 110.154C337.652 110.417 338.166 110.623 338.716 110.771C339.51 110.984 340.211 111.055 340.821 110.983C341.43 110.911 341.931 110.709 342.324 110.376C342.724 110.046 343 109.601 343.15 109.043Z" fill="white" fill-opacity="0.4"/>
<path d="M358.795 100.218L352.849 116.967L350.663 116.191L356.61 99.4422L358.795 100.218ZM364.179 102.13L363.534 103.947L350.592 99.3525L351.238 97.5349L364.179 102.13Z" fill="white" fill-opacity="0.4"/>
<path d="M376.162 127.276L372.898 125.509L373.832 123.836L377.074 125.591C378.191 126.195 379.247 126.466 380.243 126.404C381.243 126.334 382.158 125.978 382.987 125.335C383.827 124.689 384.555 123.797 385.171 122.659L385.689 121.703C386.173 120.809 386.496 119.956 386.657 119.146C386.822 118.328 386.826 117.567 386.671 116.863C386.519 116.152 386.211 115.508 385.745 114.932C385.287 114.36 384.671 113.865 383.898 113.447L380.377 111.54L381.295 109.844L384.816 111.75C385.84 112.304 386.681 112.982 387.339 113.782C388.002 114.576 388.463 115.459 388.722 116.433C388.993 117.403 389.047 118.432 388.884 119.519C388.725 120.599 388.34 121.704 387.727 122.835L387.222 123.769C386.61 124.899 385.893 125.83 385.072 126.561C384.254 127.284 383.362 127.796 382.395 128.096C381.434 128.4 380.425 128.487 379.366 128.358C378.318 128.226 377.25 127.865 376.162 127.276ZM382.465 110.478L374.004 126.108L371.932 124.986L380.393 109.356L382.465 110.478Z" fill="white" fill-opacity="0.4"/>
<path d="M391.005 136.346C390.236 135.842 389.624 135.255 389.167 134.586C388.722 133.915 388.431 133.194 388.294 132.423C388.164 131.656 388.194 130.868 388.384 130.059C388.574 129.249 388.924 128.457 389.433 127.681L389.714 127.252C390.303 126.354 390.96 125.641 391.685 125.114C392.414 124.58 393.168 124.218 393.945 124.027C394.722 123.836 395.483 123.804 396.226 123.932C396.97 124.059 397.651 124.326 398.271 124.732C399.06 125.25 399.651 125.832 400.044 126.479C400.444 127.131 400.667 127.822 400.714 128.553C400.764 129.277 400.662 130.027 400.406 130.803C400.154 131.573 399.774 132.345 399.266 133.121L398.71 133.968L390.462 128.56L391.473 127.019L397.832 131.189L397.926 131.046C398.22 130.538 398.43 129.995 398.557 129.416C398.69 128.841 398.668 128.282 398.49 127.737C398.312 127.192 397.9 126.708 397.253 126.284C396.824 126.003 396.369 125.836 395.888 125.783C395.411 125.723 394.928 125.786 394.437 125.97C393.947 126.154 393.462 126.455 392.985 126.872C392.507 127.288 392.05 127.83 391.612 128.497L391.331 128.926C390.988 129.45 390.736 129.99 390.575 130.547C390.426 131.101 390.377 131.643 390.428 132.173C390.487 132.707 390.652 133.205 390.924 133.666C391.203 134.131 391.601 134.533 392.118 134.872C392.785 135.309 393.439 135.543 394.081 135.575C394.722 135.606 395.365 135.507 396.012 135.279L396.559 136.937C396.084 137.142 395.556 137.287 394.975 137.372C394.393 137.458 393.766 137.427 393.095 137.278C392.43 137.135 391.734 136.824 391.005 136.346Z" fill="white" fill-opacity="0.4"/>
<path d="M407.919 142.73C408.172 142.4 408.342 142.07 408.432 141.739C408.533 141.406 408.537 141.04 408.443 140.64C408.356 140.245 408.164 139.786 407.868 139.262C407.579 138.743 407.176 138.132 406.659 137.429C406.119 136.688 405.665 135.976 405.296 135.293C404.931 134.605 404.675 133.942 404.527 133.306C404.379 132.669 404.361 132.056 404.474 131.467C404.588 130.877 404.855 130.308 405.275 129.758C405.696 129.209 406.197 128.789 406.78 128.496C407.362 128.204 407.994 128.048 408.676 128.027C409.37 128.005 410.085 128.122 410.821 128.378C411.558 128.635 412.288 129.04 413.012 129.594C414.071 130.405 414.814 131.297 415.238 132.268C415.675 133.237 415.837 134.197 415.725 135.146C415.618 136.089 415.282 136.929 414.718 137.666L412.857 136.241C413.263 135.711 413.509 135.156 413.594 134.576C413.685 133.989 413.59 133.404 413.309 132.82C413.033 132.229 412.543 131.665 411.839 131.125C411.174 130.616 410.548 130.295 409.961 130.164C409.375 130.033 408.844 130.057 408.369 130.236C407.9 130.42 407.497 130.732 407.161 131.171C406.933 131.469 406.787 131.787 406.721 132.126C406.668 132.464 406.694 132.838 406.8 133.248C406.914 133.662 407.11 134.115 407.39 134.606C407.676 135.102 408.048 135.654 408.506 136.261C409.134 137.1 409.633 137.882 410.002 138.605C410.37 139.328 410.608 140.007 410.716 140.643C410.835 141.278 410.817 141.884 410.661 142.462C410.517 143.038 410.235 143.601 409.814 144.15C409.374 144.725 408.859 145.156 408.271 145.443C407.682 145.73 407.045 145.873 406.359 145.871C405.674 145.869 404.959 145.726 404.213 145.442C403.478 145.156 402.739 144.729 401.996 144.16C401.344 143.66 400.77 143.077 400.276 142.412C399.787 141.751 399.423 141.042 399.183 140.284C398.95 139.531 398.881 138.771 398.977 138.004C399.084 137.235 399.407 136.499 399.946 135.794L401.807 137.219C401.436 137.704 401.21 138.192 401.131 138.685C401.056 139.171 401.093 139.65 401.243 140.124C401.4 140.602 401.642 141.055 401.972 141.481C402.313 141.906 402.709 142.292 403.162 142.638C403.814 143.138 404.436 143.471 405.027 143.636C405.618 143.801 406.158 143.805 406.648 143.647C407.144 143.494 407.568 143.188 407.919 142.73Z" fill="white" fill-opacity="0.4"/>
</svg>
