<svg width="466" height="466" viewBox="0 0 466 466" fill="none" xmlns="http://www.w3.org/2000/svg">
<path d="M451.459 246.522L451.527 244.762C452.037 244.678 452.489 244.513 452.882 244.267C453.276 244.026 453.609 243.727 453.884 243.368C454.163 243.014 454.377 242.617 454.527 242.177C454.676 241.737 454.761 241.276 454.779 240.794C454.813 239.914 454.622 239.108 454.204 238.376C453.787 237.649 453.154 237.059 452.304 236.604C451.454 236.154 450.4 235.905 449.142 235.857C447.883 235.808 446.813 235.975 445.931 236.358C445.049 236.746 444.372 237.286 443.9 237.978C443.427 238.676 443.174 239.464 443.14 240.344C443.122 240.827 443.17 241.293 443.285 241.743C443.4 242.193 443.581 242.605 443.827 242.979C444.078 243.359 444.39 243.683 444.763 243.954C445.141 244.229 445.579 244.428 446.077 244.552L446.009 246.312C445.271 246.151 444.616 245.884 444.042 245.511C443.469 245.138 442.987 244.683 442.595 244.147C442.208 243.611 441.921 243.015 441.733 242.358C441.545 241.707 441.465 241.014 441.494 240.281C441.542 239.041 441.887 237.95 442.53 237.009C443.173 236.067 444.063 235.341 445.201 234.83C446.339 234.32 447.674 234.094 449.207 234.153C450.74 234.213 452.054 234.54 453.15 235.137C454.245 235.734 455.077 236.526 455.645 237.515C456.213 238.504 456.474 239.618 456.426 240.857C456.397 241.591 456.264 242.275 456.027 242.91C455.789 243.55 455.454 244.122 455.022 244.627C454.595 245.132 454.082 245.548 453.481 245.875C452.886 246.203 452.212 246.419 451.459 246.522Z" fill="white" fill-opacity="0.4"/>
<path d="M446.946 263.936C445.423 263.754 444.139 263.321 443.096 262.637C442.053 261.954 441.287 261.097 440.801 260.066C440.314 259.034 440.145 257.903 440.293 256.671C440.441 255.44 440.873 254.38 441.59 253.493C442.307 252.607 443.253 251.955 444.428 251.538C445.604 251.121 446.953 251.004 448.476 251.187C449.999 251.37 451.283 251.803 452.326 252.486C453.37 253.169 454.135 254.027 454.621 255.058C455.108 256.089 455.277 257.221 455.129 258.452C454.982 259.684 454.549 260.743 453.832 261.63C453.115 262.517 452.169 263.169 450.994 263.585C449.818 264.002 448.469 264.119 446.946 263.936ZM447.149 262.244C448.399 262.394 449.48 262.312 450.391 261.997C451.3 261.686 452.019 261.202 452.546 260.546C453.073 259.894 453.388 259.13 453.493 258.256C453.598 257.381 453.473 256.563 453.116 255.8C452.759 255.042 452.175 254.402 451.365 253.88C450.554 253.363 449.524 253.03 448.273 252.879C447.023 252.729 445.942 252.809 445.032 253.12C444.122 253.435 443.403 253.919 442.877 254.571C442.35 255.228 442.034 255.993 441.929 256.868C441.824 257.742 441.95 258.558 442.307 259.317C442.664 260.079 443.247 260.719 444.058 261.236C444.868 261.758 445.898 262.094 447.149 262.244Z" fill="white" fill-opacity="0.4"/>
<path d="M450.881 282.557L436.636 279.614L436.981 277.945L449.769 272.493L449.798 272.354L438.614 270.043L438.97 268.318L453.215 271.262L452.87 272.931L440.048 278.404L440.019 278.543L451.231 280.86L450.881 282.557Z" fill="white" fill-opacity="0.4"/>
<path d="M447.947 288.269L449.449 288.7L446.436 299.185L444.935 298.754L446.198 294.358L433.72 290.772L434.206 289.079L446.684 292.665L447.947 288.269Z" fill="white" fill-opacity="0.4"/>
<path d="M431.005 299.721L431.641 297.987L443.459 308.009L442.833 309.716L427.338 309.723L427.974 307.989L440.966 308.124L441.005 308.017L431.005 299.721ZM436.105 302.317L433.543 309.305L432.076 308.767L434.638 301.779L436.105 302.317Z" fill="white" fill-opacity="0.4"/>
<path d="M430.17 328.142L430.899 326.538C431.403 326.653 431.884 326.671 432.341 326.592C432.795 326.518 433.218 326.367 433.608 326.138C434 325.916 434.348 325.629 434.653 325.279C434.958 324.929 435.21 324.533 435.41 324.094C435.774 323.292 435.901 322.473 435.791 321.638C435.68 320.808 435.317 320.021 434.702 319.279C434.085 318.542 433.203 317.913 432.057 317.392C430.91 316.871 429.856 316.621 428.895 316.642C427.932 316.668 427.1 316.912 426.402 317.375C425.701 317.842 425.168 318.476 424.804 319.278C424.604 319.718 424.473 320.168 424.41 320.628C424.346 321.088 424.358 321.538 424.444 321.977C424.533 322.423 424.699 322.842 424.943 323.233C425.188 323.631 425.518 323.981 425.932 324.283L425.204 325.887C424.582 325.459 424.076 324.964 423.686 324.402C423.297 323.84 423.022 323.237 422.862 322.593C422.707 321.95 422.666 321.289 422.74 320.611C422.813 319.936 423 319.265 423.304 318.597C423.817 317.467 424.549 316.588 425.5 315.959C426.451 315.33 427.55 314.994 428.796 314.952C430.043 314.91 431.365 315.206 432.761 315.84C434.158 316.474 435.251 317.274 436.039 318.241C436.828 319.207 437.298 320.256 437.451 321.386C437.603 322.516 437.423 323.645 436.91 324.775C436.606 325.443 436.225 326.026 435.764 326.525C435.302 327.027 434.776 327.43 434.185 327.734C433.599 328.04 432.967 328.231 432.287 328.308C431.612 328.386 430.906 328.331 430.17 328.142Z" fill="white" fill-opacity="0.4"/>
<path d="M430.655 333.913L432.025 334.662L426.791 344.234L425.421 343.484L427.615 339.471L416.224 333.242L417.069 331.697L428.46 337.926L430.655 333.913Z" fill="white" fill-opacity="0.4"/>
<path d="M415.46 361.894L414.46 363.344L406.53 357.88C405.711 357.316 405.113 356.619 404.735 355.79C404.359 354.967 404.226 354.08 404.337 353.126C404.451 352.176 404.832 351.231 405.48 350.291C406.127 349.352 406.874 348.659 407.722 348.214C408.573 347.771 409.451 347.577 410.357 347.631C411.263 347.693 412.126 348.005 412.945 348.569L420.875 354.034L419.876 355.484L412.062 350.1C411.478 349.697 410.868 349.467 410.235 349.411C409.605 349.356 408.996 349.477 408.407 349.773C407.819 350.075 407.296 350.559 406.836 351.226C406.377 351.893 406.111 352.555 406.038 353.212C405.968 353.871 406.073 354.483 406.35 355.048C406.629 355.62 407.061 356.107 407.646 356.51L415.46 361.894Z" fill="white" fill-opacity="0.4"/>
<path d="M402.939 372.312C403.553 372.696 404.205 372.776 404.895 372.552C405.584 372.328 406.205 371.873 406.756 371.186C407.159 370.684 407.431 370.18 407.57 369.672C407.707 369.169 407.718 368.698 407.603 368.259C407.484 367.824 407.244 367.462 406.882 367.171C406.579 366.928 406.261 366.791 405.928 366.76C405.595 366.736 405.265 366.781 404.937 366.894C404.613 367.011 404.304 367.157 404.01 367.334C403.72 367.514 403.463 367.687 403.238 367.853L402.004 368.756C401.689 368.99 401.318 369.232 400.891 369.485C400.461 369.74 399.995 369.94 399.491 370.082C398.989 370.232 398.468 370.269 397.927 370.193C397.387 370.118 396.851 369.866 396.319 369.44C395.706 368.948 395.281 368.343 395.044 367.624C394.804 366.909 394.784 366.129 394.985 365.281C395.182 364.438 395.63 363.581 396.33 362.709C396.982 361.897 397.677 361.298 398.417 360.914C399.153 360.534 399.892 360.362 400.634 360.399C401.372 360.439 402.07 360.686 402.725 361.14L401.587 362.558C401.129 362.251 400.659 362.11 400.177 362.136C399.696 362.169 399.231 362.324 398.783 362.602C398.336 362.887 397.932 363.254 397.57 363.705C397.15 364.229 396.857 364.768 396.692 365.322C396.53 365.878 396.505 366.402 396.616 366.891C396.73 367.384 396.995 367.796 397.408 368.128C397.785 368.43 398.176 368.571 398.581 368.55C398.986 368.529 399.401 368.407 399.824 368.182C400.247 367.957 400.674 367.69 401.105 367.38L402.624 366.304C403.59 365.622 404.517 365.212 405.405 365.075C406.292 364.937 407.118 365.175 407.883 365.789C408.518 366.298 408.934 366.915 409.131 367.637C409.329 368.367 409.324 369.128 409.118 369.922C408.913 370.723 408.52 371.485 407.939 372.209C407.352 372.94 406.7 373.484 405.981 373.843C405.266 374.204 404.55 374.37 403.833 374.341C403.113 374.315 402.459 374.082 401.872 373.641L402.939 372.312Z" fill="white" fill-opacity="0.4"/>
<path d="M385.755 389.758L386.987 388.499C387.422 388.779 387.868 388.96 388.324 389.042C388.777 389.128 389.226 389.13 389.67 389.048C390.115 388.973 390.54 388.822 390.946 388.597C391.352 388.371 391.724 388.086 392.062 387.741C392.677 387.111 393.076 386.386 393.258 385.563C393.437 384.744 393.364 383.881 393.039 382.974C392.711 382.07 392.097 381.178 391.197 380.297C390.297 379.416 389.391 378.822 388.481 378.514C387.566 378.209 386.702 378.155 385.887 378.351C385.069 378.551 384.352 378.966 383.736 379.595C383.398 379.94 383.121 380.318 382.905 380.729C382.688 381.14 382.546 381.567 382.477 382.009C382.408 382.459 382.421 382.909 382.517 383.36C382.612 383.818 382.803 384.259 383.088 384.685L381.857 385.944C381.418 385.329 381.111 384.691 380.937 384.03C380.762 383.369 380.71 382.708 380.78 382.048C380.853 381.391 381.04 380.756 381.341 380.143C381.639 379.534 382.045 378.967 382.558 378.443C383.426 377.556 384.414 376.979 385.523 376.713C386.632 376.446 387.779 376.506 388.965 376.891C390.151 377.277 391.293 378.006 392.389 379.079C393.486 380.152 394.239 381.277 394.651 382.454C395.062 383.632 395.146 384.778 394.904 385.892C394.662 387.006 394.107 388.007 393.239 388.893C392.726 389.418 392.168 389.836 391.565 390.147C390.96 390.462 390.327 390.661 389.669 390.745C389.013 390.833 388.353 390.796 387.689 390.636C387.027 390.479 386.383 390.187 385.755 389.758Z" fill="white" fill-opacity="0.4"/>
<path d="M370.722 399.61C369.715 398.453 369.053 397.271 368.737 396.065C368.421 394.858 368.429 393.709 368.759 392.618C369.09 391.527 369.723 390.574 370.659 389.759C371.594 388.944 372.625 388.449 373.752 388.271C374.878 388.094 376.017 388.245 377.169 388.724C378.32 389.203 379.4 390.021 380.407 391.178C381.414 392.335 382.076 393.517 382.392 394.724C382.708 395.93 382.7 397.079 382.37 398.17C382.039 399.262 381.406 400.215 380.471 401.029C379.535 401.844 378.504 402.34 377.378 402.517C376.251 402.694 375.112 402.543 373.961 402.064C372.809 401.585 371.73 400.767 370.722 399.61ZM372.008 398.491C372.835 399.441 373.692 400.104 374.578 400.481C375.462 400.861 376.319 400.984 377.151 400.85C377.978 400.719 378.724 400.365 379.389 399.787C380.053 399.208 380.509 398.517 380.756 397.711C380.999 396.909 380.995 396.043 380.744 395.113C380.489 394.186 379.948 393.247 379.121 392.298C378.294 391.348 377.439 390.683 376.556 390.303C375.669 389.926 374.812 389.803 373.984 389.934C373.153 390.067 372.405 390.423 371.74 391.002C371.076 391.58 370.622 392.27 370.379 393.072C370.132 393.877 370.136 394.744 370.391 395.671C370.642 396.601 371.181 397.541 372.008 398.491Z" fill="white" fill-opacity="0.4"/>
<path d="M361.098 416.065L352.498 404.334L353.873 403.326L367.017 407.851L367.132 407.767L360.38 398.557L361.801 397.515L370.4 409.247L369.025 410.254L355.841 405.723L355.727 405.807L362.495 415.041L361.098 416.065Z" fill="white" fill-opacity="0.4"/>
<path d="M354.93 418.408L355.754 419.735L346.486 425.49L345.662 424.162L349.548 421.749L342.699 410.72L344.196 409.791L351.044 420.82L354.93 418.408Z" fill="white" fill-opacity="0.4"/>
<path d="M334.691 415.499L336.324 414.637L338.39 429.994L336.782 430.842L325.269 420.471L326.902 419.609L336.462 428.409L336.562 428.356L334.691 415.499ZM336.74 420.842L330.157 424.316L329.428 422.934L336.011 419.46L336.74 420.842Z" fill="white" fill-opacity="0.4"/>
<path d="M314.746 436.114L316.363 435.416C316.66 435.84 317.004 436.176 317.395 436.425C317.781 436.676 318.196 436.847 318.638 436.94C319.078 437.039 319.529 437.061 319.99 437.006C320.451 436.952 320.903 436.828 321.347 436.637C322.155 436.288 322.799 435.767 323.279 435.075C323.755 434.385 324.014 433.559 324.058 432.596C324.097 431.636 323.867 430.577 323.367 429.421C322.868 428.265 322.255 427.371 321.529 426.741C320.799 426.112 320.02 425.735 319.191 425.608C318.358 425.482 317.538 425.594 316.729 425.944C316.286 426.135 315.886 426.38 315.53 426.678C315.174 426.976 314.88 427.317 314.649 427.701C314.415 428.09 314.256 428.512 314.174 428.966C314.089 429.425 314.098 429.906 314.201 430.408L312.584 431.106C312.411 430.371 312.369 429.665 312.458 428.987C312.547 428.309 312.749 427.678 313.064 427.093C313.38 426.513 313.794 425.996 314.305 425.544C314.812 425.093 315.402 424.722 316.076 424.431C317.215 423.939 318.348 423.78 319.475 423.953C320.602 424.127 321.641 424.617 322.593 425.423C323.544 426.229 324.324 427.337 324.932 428.745C325.54 430.153 325.812 431.48 325.746 432.726C325.68 433.971 325.324 435.064 324.678 436.003C324.031 436.942 323.139 437.658 322 438.15C321.326 438.441 320.651 438.616 319.976 438.676C319.296 438.737 318.635 438.682 317.993 438.51C317.354 438.343 316.757 438.059 316.202 437.659C315.65 437.263 315.164 436.748 314.746 436.114Z" fill="white" fill-opacity="0.4"/>
<path d="M311.266 440.696L311.776 442.173L301.465 445.735L300.955 444.258L305.278 442.765L301.038 430.493L302.703 429.918L306.943 442.189L311.266 440.696Z" fill="white" fill-opacity="0.4"/>
<path d="M281.564 451.107L279.85 451.516L277.615 442.148C277.384 441.181 277.406 440.263 277.681 439.395C277.952 438.532 278.447 437.783 279.167 437.149C279.888 436.519 280.804 436.072 281.914 435.807C283.024 435.542 284.043 435.528 284.97 435.764C285.899 436.005 286.682 436.448 287.318 437.095C287.951 437.747 288.382 438.557 288.613 439.524L290.848 448.892L289.135 449.3L286.933 440.071C286.768 439.38 286.469 438.802 286.037 438.335C285.605 437.874 285.072 437.555 284.436 437.381C283.797 437.212 283.084 437.222 282.296 437.41C281.509 437.598 280.868 437.911 280.374 438.35C279.881 438.794 279.549 439.319 279.377 439.924C279.202 440.536 279.196 441.187 279.361 441.878L281.564 451.107Z" fill="white" fill-opacity="0.4"/>
<path d="M265.213 450.412C265.411 451.109 265.84 451.606 266.501 451.904C267.162 452.201 267.927 452.281 268.797 452.143C269.433 452.041 269.973 451.85 270.417 451.568C270.857 451.287 271.181 450.946 271.39 450.543C271.595 450.141 271.661 449.711 271.588 449.253C271.527 448.87 271.383 448.555 271.157 448.308C270.926 448.066 270.652 447.877 270.333 447.741C270.015 447.61 269.687 447.511 269.351 447.445C269.015 447.383 268.708 447.338 268.431 447.311L266.909 447.15C266.519 447.111 266.082 447.042 265.596 446.942C265.105 446.843 264.626 446.677 264.157 446.445C263.685 446.218 263.274 445.895 262.924 445.476C262.575 445.057 262.347 444.511 262.239 443.837C262.116 443.061 262.208 442.327 262.515 441.636C262.817 440.945 263.327 440.354 264.044 439.861C264.757 439.368 265.665 439.034 266.769 438.859C267.797 438.695 268.715 438.719 269.52 438.931C270.321 439.144 270.984 439.513 271.509 440.039C272.029 440.565 272.38 441.216 272.561 441.993L270.765 442.279C270.632 441.744 270.378 441.324 270.004 441.019C269.625 440.72 269.177 440.523 268.658 440.428C268.136 440.338 267.589 440.339 267.019 440.43C266.355 440.536 265.776 440.738 265.282 441.037C264.788 441.341 264.418 441.712 264.171 442.149C263.925 442.591 263.844 443.074 263.927 443.597C264.003 444.074 264.198 444.441 264.512 444.698C264.826 444.955 265.216 445.142 265.681 445.26C266.145 445.378 266.641 445.467 267.168 445.527L269.016 445.75C270.19 445.894 271.152 446.213 271.902 446.708C272.652 447.202 273.104 447.933 273.258 448.901C273.386 449.705 273.28 450.441 272.94 451.109C272.597 451.782 272.082 452.344 271.396 452.793C270.706 453.248 269.903 453.549 268.986 453.695C268.061 453.842 267.211 453.807 266.438 453.59C265.666 453.377 265.024 453.019 264.512 452.515C263.996 452.013 263.669 451.401 263.53 450.68L265.213 450.412Z" fill="white" fill-opacity="0.4"/>
<path d="M240.681 451.763L242.439 451.661C242.573 452.161 242.78 452.595 243.063 452.963C243.34 453.331 243.671 453.634 244.054 453.873C244.434 454.116 244.849 454.292 245.301 454.398C245.753 454.505 246.22 454.544 246.702 454.516C247.582 454.465 248.365 454.197 249.053 453.711C249.737 453.226 250.264 452.538 250.634 451.649C251 450.76 251.146 449.687 251.074 448.429C251.001 447.172 250.731 446.123 250.265 445.282C249.794 444.441 249.192 443.819 248.457 443.416C247.717 443.013 246.908 442.837 246.029 442.888C245.547 442.916 245.087 443.009 244.651 443.167C244.214 443.325 243.821 443.545 243.472 443.826C243.119 444.112 242.826 444.454 242.593 444.851C242.355 445.254 242.199 445.709 242.124 446.216L240.365 446.318C240.455 445.568 240.657 444.89 240.973 444.284C241.289 443.677 241.695 443.153 242.191 442.712C242.688 442.275 243.253 441.932 243.889 441.682C244.519 441.432 245.201 441.285 245.933 441.243C247.172 441.171 248.291 441.41 249.29 441.959C250.289 442.508 251.098 443.325 251.716 444.408C252.333 445.492 252.687 446.799 252.775 448.331C252.864 449.862 252.664 451.202 252.176 452.349C251.687 453.497 250.979 454.401 250.049 455.062C249.12 455.723 248.036 456.089 246.798 456.161C246.065 456.204 245.371 456.137 244.716 455.962C244.056 455.786 243.454 455.508 242.91 455.127C242.367 454.751 241.903 454.28 241.52 453.714C241.136 453.153 240.857 452.502 240.681 451.763Z" fill="white" fill-opacity="0.4"/>
<path d="M222.041 448.895C222.082 447.362 222.395 446.044 222.979 444.942C223.563 443.84 224.346 442.999 225.328 442.419C226.309 441.839 227.42 441.566 228.661 441.6C229.901 441.633 230.995 441.966 231.944 442.598C232.894 443.23 233.63 444.112 234.154 445.244C234.677 446.376 234.918 447.709 234.877 449.242C234.835 450.776 234.523 452.094 233.939 453.196C233.355 454.298 232.572 455.139 231.59 455.718C230.608 456.298 229.497 456.571 228.257 456.538C227.017 456.504 225.922 456.171 224.973 455.539C224.024 454.908 223.287 454.026 222.764 452.894C222.24 451.762 221.999 450.429 222.041 448.895ZM223.745 448.941C223.71 450.2 223.892 451.269 224.29 452.146C224.683 453.024 225.231 453.694 225.934 454.159C226.632 454.623 227.421 454.867 228.301 454.89C229.182 454.914 229.985 454.713 230.712 454.288C231.434 453.862 232.017 453.222 232.462 452.367C232.902 451.512 233.139 450.455 233.173 449.196C233.207 447.937 233.027 446.869 232.634 445.992C232.236 445.114 231.689 444.443 230.991 443.979C230.288 443.515 229.496 443.271 228.616 443.247C227.736 443.223 226.934 443.424 226.213 443.85C225.486 444.276 224.902 444.916 224.463 445.771C224.018 446.625 223.779 447.682 223.745 448.941Z" fill="white" fill-opacity="0.4"/>
<path d="M203.871 454.555L205.438 440.095L207.133 440.278L213.782 452.486L213.924 452.501L215.154 441.147L216.905 441.337L215.338 455.798L213.643 455.614L206.969 443.375L206.827 443.36L205.594 454.742L203.871 454.555Z" fill="white" fill-opacity="0.4"/>
<path d="M197.796 452.126L197.509 453.662L186.785 451.659L187.072 450.123L191.568 450.963L193.952 438.201L195.684 438.524L193.3 451.286L197.796 452.126Z" fill="white" fill-opacity="0.4"/>
<path d="M184.822 436.332L186.608 436.802L177.745 449.511L175.987 449.049L174.519 433.624L176.305 434.093L177.396 447.04L177.506 447.069L184.822 436.332ZM182.719 441.654L175.52 439.762L175.917 438.251L183.116 440.143L182.719 441.654Z" fill="white" fill-opacity="0.4"/>
<path d="M156.251 438.088L157.916 438.664C157.849 439.176 157.876 439.657 157.997 440.104C158.113 440.55 158.304 440.957 158.568 441.323C158.826 441.693 159.143 442.013 159.521 442.284C159.898 442.554 160.315 442.769 160.772 442.926C161.604 443.214 162.431 443.264 163.252 443.077C164.068 442.888 164.817 442.453 165.499 441.772C166.175 441.089 166.719 440.152 167.131 438.962C167.542 437.771 167.692 436.699 167.581 435.744C167.466 434.787 167.145 433.982 166.619 433.33C166.089 432.676 165.408 432.205 164.575 431.917C164.119 431.759 163.658 431.671 163.195 431.651C162.731 431.63 162.284 431.684 161.854 431.811C161.418 431.941 161.017 432.146 160.65 432.425C160.277 432.707 159.96 433.068 159.697 433.508L158.033 432.933C158.401 432.274 158.846 431.724 159.369 431.283C159.892 430.843 160.467 430.513 161.094 430.293C161.719 430.079 162.373 429.976 163.055 429.987C163.734 429.996 164.42 430.12 165.113 430.36C166.286 430.765 167.23 431.412 167.945 432.3C168.66 433.188 169.097 434.251 169.255 435.488C169.414 436.725 169.243 438.068 168.742 439.518C168.241 440.968 167.546 442.131 166.658 443.006C165.769 443.882 164.769 444.448 163.659 444.705C162.548 444.963 161.406 444.889 160.233 444.484C159.54 444.244 158.923 443.918 158.384 443.507C157.841 443.094 157.39 442.607 157.032 442.048C156.673 441.493 156.424 440.881 156.284 440.211C156.143 439.546 156.132 438.839 156.251 438.088Z" fill="white" fill-opacity="0.4"/>
<path d="M150.618 439.12L149.999 440.554L139.984 436.23L140.603 434.795L144.802 436.608L149.949 424.689L151.566 425.387L146.419 437.307L150.618 439.12Z" fill="white" fill-opacity="0.4"/>
<path d="M121.68 426.76L120.141 425.904L124.824 417.488C125.307 416.619 125.944 415.957 126.733 415.503C127.516 415.05 128.388 414.833 129.347 414.852C130.304 414.875 131.281 415.164 132.278 415.719C133.275 416.274 134.036 416.952 134.56 417.753C135.082 418.558 135.359 419.414 135.391 420.32C135.417 421.229 135.188 422.117 134.704 422.986L130.021 431.401L128.482 430.545L133.096 422.254C133.441 421.633 133.612 421.005 133.608 420.369C133.602 419.737 133.424 419.142 133.074 418.584C132.717 418.027 132.184 417.552 131.477 417.159C130.769 416.765 130.085 416.563 129.424 416.553C128.761 416.547 128.162 416.709 127.626 417.04C127.083 417.372 126.639 417.848 126.294 418.469L121.68 426.76Z" fill="white" fill-opacity="0.4"/>
<path d="M110.125 415.256C109.801 415.904 109.783 416.561 110.071 417.226C110.359 417.891 110.871 418.466 111.607 418.949C112.145 419.303 112.674 419.525 113.192 419.616C113.706 419.705 114.176 419.671 114.601 419.514C115.023 419.355 115.361 419.082 115.616 418.694C115.829 418.37 115.936 418.04 115.935 417.705C115.927 417.372 115.851 417.047 115.708 416.731C115.561 416.42 115.386 416.126 115.182 415.851C114.975 415.579 114.778 415.339 114.592 415.132L113.576 413.988C113.314 413.697 113.037 413.351 112.745 412.949C112.45 412.546 112.207 412.1 112.017 411.613C111.821 411.127 111.735 410.611 111.759 410.066C111.783 409.521 111.982 408.964 112.356 408.394C112.788 407.737 113.35 407.256 114.043 406.952C114.731 406.646 115.507 406.552 116.369 406.671C117.228 406.787 118.124 407.152 119.058 407.766C119.928 408.338 120.59 408.974 121.042 409.673C121.491 410.37 121.732 411.09 121.766 411.831C121.796 412.571 121.616 413.288 121.226 413.984L119.707 412.986C119.969 412.501 120.064 412.019 119.993 411.542C119.915 411.066 119.716 410.618 119.397 410.198C119.071 409.78 118.667 409.413 118.184 409.096C117.622 408.726 117.058 408.486 116.491 408.374C115.922 408.266 115.398 408.291 114.921 408.448C114.442 408.608 114.056 408.91 113.765 409.354C113.5 409.757 113.397 410.16 113.456 410.561C113.515 410.963 113.677 411.363 113.941 411.763C114.205 412.164 114.512 412.563 114.861 412.963L116.076 414.373C116.846 415.27 117.342 416.154 117.563 417.024C117.784 417.895 117.626 418.74 117.088 419.559C116.64 420.239 116.066 420.712 115.366 420.977C114.658 421.243 113.9 421.311 113.09 421.181C112.273 421.053 111.477 420.734 110.702 420.224C109.918 419.709 109.314 419.111 108.889 418.43C108.462 417.752 108.229 417.055 108.19 416.338C108.147 415.619 108.317 414.946 108.7 414.32L110.125 415.256Z" fill="white" fill-opacity="0.4"/>
<path d="M91.1578 399.776L92.5275 400.884C92.2899 401.343 92.1518 401.804 92.1132 402.266C92.0709 402.725 92.1114 403.172 92.2349 403.606C92.3517 404.042 92.5414 404.451 92.8041 404.834C93.0669 405.217 93.386 405.56 93.7616 405.864C94.4464 406.417 95.2067 406.746 96.0425 406.85C96.8746 406.95 97.7269 406.796 98.5994 406.387C99.4682 405.975 100.299 405.28 101.09 404.3C101.882 403.321 102.389 402.363 102.61 401.428C102.827 400.489 102.799 399.623 102.527 398.83C102.25 398.035 101.77 397.36 101.085 396.806C100.71 396.503 100.307 396.263 99.8776 396.086C99.4482 395.909 99.0098 395.807 98.5626 395.781C98.1087 395.755 97.6618 395.81 97.2218 395.948C96.7752 396.086 96.3536 396.317 95.957 396.642L94.5874 395.535C95.1579 395.04 95.7639 394.675 96.4055 394.438C97.0471 394.202 97.6999 394.088 98.364 394.095C99.025 394.106 99.6747 394.232 100.313 394.474C100.948 394.713 101.55 395.064 102.121 395.525C103.086 396.305 103.753 397.234 104.123 398.313C104.493 399.392 104.542 400.54 104.27 401.757C103.999 402.974 103.38 404.179 102.416 405.372C101.451 406.565 100.402 407.422 99.269 407.942C98.1357 408.463 97.0029 408.655 95.8708 408.519C94.7386 408.383 93.6902 407.925 92.7256 407.145C92.1549 406.684 91.6862 406.168 91.3194 405.597C90.9489 405.023 90.6907 404.413 90.5447 403.765C90.3957 403.121 90.3696 402.46 90.4663 401.784C90.56 401.11 90.7905 400.441 91.1578 399.776Z" fill="white" fill-opacity="0.4"/>
<path d="M79.8507 385.602C80.9115 384.494 82.0284 383.728 83.2013 383.304C84.3742 382.88 85.5191 382.783 86.6359 383.013C87.7527 383.243 88.7592 383.787 89.6553 384.645C90.5514 385.503 91.1387 386.485 91.4174 387.59C91.696 388.696 91.649 389.844 91.2765 391.034C90.9039 392.225 90.1872 393.374 89.1263 394.482C88.0655 395.59 86.9486 396.356 85.7757 396.78C84.6028 397.204 83.4579 397.301 82.3411 397.071C81.2243 396.841 80.2178 396.297 79.3217 395.439C78.4256 394.581 77.8382 393.6 77.5596 392.494C77.281 391.388 77.328 390.24 77.7005 389.05C78.0731 387.86 78.7898 386.71 79.8507 385.602ZM81.0819 386.781C80.211 387.691 79.6281 388.604 79.3333 389.522C79.0351 390.436 78.9904 391.301 79.199 392.117C79.4043 392.929 79.825 393.64 80.4611 394.249C81.0973 394.858 81.8275 395.249 82.6517 395.422C83.4726 395.592 84.3348 395.509 85.2384 395.175C86.1385 394.837 87.0241 394.213 87.895 393.303C88.766 392.394 89.3506 391.482 89.6488 390.568C89.9436 389.65 89.9884 388.785 89.7831 387.973C89.5744 387.157 89.152 386.444 88.5158 385.835C87.8797 385.226 87.1512 384.837 86.3304 384.667C85.5061 384.494 84.6439 384.577 83.7438 384.915C82.8402 385.249 81.9529 385.871 81.0819 386.781Z" fill="white" fill-opacity="0.4"/>
<path d="M62.605 377.571L73.5056 367.941L74.6342 369.218L71.3234 382.72L71.4174 382.826L79.9761 375.265L81.1423 376.585L70.2417 386.215L69.1131 384.938L72.4264 371.396L72.3323 371.29L63.7524 378.87L62.605 377.571Z" fill="white" fill-opacity="0.4"/>
<path d="M59.7032 371.675L58.4567 372.618L51.8795 363.914L53.126 362.972L55.8837 366.621L66.2416 358.794L67.3035 360.199L56.9456 368.026L59.7032 371.675Z" fill="white" fill-opacity="0.4"/>
<path d="M60.8016 351.376L61.8099 352.922L46.7081 356.391L45.7152 354.868L54.984 342.451L55.9924 343.998L48.1084 354.325L48.1705 354.42L60.8016 351.376ZM55.6693 353.907L51.6049 347.672L52.9138 346.818L56.9783 353.054L55.6693 353.907Z" fill="white" fill-opacity="0.4"/>
<path d="M38.3955 333.407L39.2406 334.952C38.8461 335.287 38.543 335.66 38.3315 336.073C38.1176 336.481 37.9851 336.91 37.9338 337.359C37.8761 337.806 37.8958 338.256 37.993 338.71C38.0902 339.164 38.2547 339.603 38.4864 340.027C38.909 340.8 39.487 341.393 40.2205 341.807C40.9518 342.216 41.7986 342.398 42.761 342.352C43.7212 342.302 44.7538 341.975 45.8588 341.371C46.9639 340.766 47.7965 340.074 48.3569 339.292C48.9149 338.507 49.2188 337.696 49.2686 336.859C49.3161 336.018 49.1286 335.211 48.706 334.439C48.4743 334.015 48.1935 333.64 47.8637 333.313C47.5338 332.986 47.1672 332.725 46.7638 332.53C46.3539 332.333 45.9194 332.215 45.4603 332.174C44.9947 332.132 44.5167 332.186 44.0264 332.335L43.1813 330.79C43.8971 330.549 44.5967 330.442 45.2799 330.468C45.9631 330.494 46.6104 330.636 47.2217 330.895C47.8289 331.157 48.3815 331.521 48.8797 331.988C49.3756 332.451 49.7996 333.004 50.1517 333.648C50.7469 334.737 51.0103 335.85 50.942 336.988C50.8737 338.127 50.4822 339.207 49.7676 340.229C49.0529 341.251 48.0226 342.13 46.6766 342.866C45.3306 343.602 44.0345 343.995 42.7883 344.045C41.5421 344.095 40.4214 343.842 39.4263 343.285C38.4311 342.729 37.6359 341.906 37.0407 340.818C36.6886 340.174 36.4516 339.518 36.3296 338.851C36.2053 338.18 36.1989 337.517 36.3104 336.862C36.4178 336.21 36.645 335.589 36.9921 335C37.3349 334.413 37.8028 333.882 38.3955 333.407Z" fill="white" fill-opacity="0.4"/>
<path d="M33.5006 330.388L32.0779 331.034L27.5674 321.101L28.9901 320.455L30.8812 324.619L42.7025 319.251L43.4308 320.855L31.6095 326.223L33.5006 330.388Z" fill="white" fill-opacity="0.4"/>
<path d="M20.3243 301.722L19.7617 300.053L28.8878 296.977C29.83 296.659 30.7462 296.598 31.6362 296.792C32.5203 296.984 33.3108 297.409 34.0078 298.069C34.7003 298.73 35.2288 299.601 35.5933 300.682C35.9578 301.764 36.0645 302.777 35.9135 303.722C35.7579 304.669 35.3871 305.489 34.801 306.181C34.2089 306.87 33.4418 307.373 32.4995 307.691L23.3734 310.767L22.8108 309.098L31.8023 306.067C32.4753 305.841 33.0244 305.491 33.4495 305.017C33.8702 304.546 34.1386 303.986 34.2546 303.337C34.3647 302.685 34.2905 301.976 34.0319 301.209C33.7732 300.441 33.4028 299.832 32.9207 299.38C32.434 298.929 31.8813 298.646 31.2625 298.53C30.6378 298.41 29.9889 298.464 29.3158 298.691L20.3243 301.722Z" fill="white" fill-opacity="0.4"/>
<path d="M19.5786 285.804C18.9032 286.067 18.4489 286.542 18.2157 287.228C17.9825 287.914 17.9763 288.684 18.1969 289.537C18.3583 290.16 18.6003 290.679 18.923 291.095C19.2445 291.505 19.6155 291.796 20.0361 291.966C20.4555 292.131 20.8898 292.156 21.339 292.039C21.7149 291.942 22.0149 291.769 22.2391 291.52C22.4575 291.268 22.6193 290.977 22.7245 290.646C22.8252 290.317 22.8924 289.982 22.9264 289.64C22.9557 289.3 22.9709 288.991 22.9721 288.712L22.987 287.182C22.9883 286.79 23.0157 286.348 23.069 285.855C23.1212 285.357 23.2406 284.864 23.4272 284.375C23.608 283.884 23.8903 283.444 24.2741 283.056C24.6579 282.668 25.1798 282.389 25.8399 282.218C26.6008 282.021 27.34 282.042 28.0575 282.282C28.7737 282.517 29.4114 282.968 29.9704 283.636C30.5283 284.298 30.9472 285.17 31.2272 286.252C31.4882 287.261 31.5514 288.176 31.417 288.998C31.2813 289.816 30.977 290.511 30.504 291.083C30.0298 291.651 29.4148 292.062 28.659 292.316L28.2034 290.556C28.7233 290.373 29.1171 290.08 29.3848 289.678C29.6467 289.273 29.8002 288.808 29.8452 288.283C29.8845 287.754 29.8317 287.21 29.687 286.651C29.5186 286 29.2619 285.443 28.917 284.979C28.5675 284.517 28.1633 284.184 27.7046 283.98C27.2412 283.777 26.7529 283.742 26.2395 283.875C25.7719 283.996 25.4253 284.225 25.1996 284.562C24.9738 284.899 24.8244 285.305 24.7514 285.779C24.6784 286.252 24.6372 286.755 24.6278 287.285L24.5812 289.146C24.5496 290.328 24.3235 291.316 23.9028 292.109C23.4822 292.903 22.7975 293.423 21.8486 293.668C21.0602 293.872 20.3174 293.837 19.6204 293.563C18.9176 293.285 18.3097 292.826 17.7968 292.186C17.2781 291.542 16.9026 290.771 16.67 289.873C16.4351 288.965 16.3891 288.117 16.5318 287.326C16.67 286.537 16.9653 285.864 17.4178 285.307C17.869 284.745 18.447 284.361 19.1515 284.154L19.5786 285.804Z" fill="white" fill-opacity="0.4"/>
<path d="M15.8454 261.103L16.109 262.845C15.6236 263.024 15.2108 263.27 14.8706 263.585C14.5296 263.895 14.2581 264.253 14.0558 264.657C13.8482 265.057 13.7122 265.487 13.6477 265.947C13.5832 266.407 13.5871 266.875 13.6593 267.353C13.7911 268.224 14.1305 268.979 14.6775 269.62C15.2239 270.255 15.9569 270.716 16.8767 271.003C17.7958 271.286 18.8779 271.333 20.1232 271.144C21.3685 270.956 22.3884 270.591 23.1827 270.049C23.9764 269.503 24.5402 268.845 24.874 268.077C25.207 267.303 25.3077 266.481 25.1759 265.61C25.1037 265.133 24.9687 264.684 24.771 264.264C24.5734 263.843 24.3185 263.472 24.0065 263.151C23.689 262.825 23.3216 262.565 22.9041 262.37C22.4813 262.17 22.0139 262.056 21.5021 262.029L21.2386 260.287C21.9934 260.307 22.6873 260.446 23.3202 260.705C23.9532 260.963 24.5123 261.319 24.9975 261.773C25.478 262.227 25.8722 262.758 26.1799 263.368C26.4869 263.973 26.6953 264.638 26.8051 265.364C26.9907 266.59 26.8562 267.726 26.4015 268.772C25.9467 269.818 25.2084 270.698 24.1864 271.413C23.1645 272.128 21.8951 272.6 20.3783 272.83C18.8615 273.059 17.5092 272.984 16.3214 272.603C15.1337 272.223 14.168 271.6 13.4242 270.736C12.6804 269.871 12.2158 268.826 12.0301 267.599C11.9203 266.874 11.9226 266.177 12.0369 265.508C12.1505 264.835 12.372 264.21 12.7014 263.633C13.0261 263.057 13.4525 262.552 13.9805 262.118C14.504 261.684 15.1256 261.346 15.8454 261.103Z" fill="white" fill-opacity="0.4"/>
<path d="M17.0228 243.255C18.5532 243.148 19.895 243.333 21.0481 243.808C22.2013 244.283 23.1137 244.981 23.7853 245.903C24.4569 246.824 24.8358 247.904 24.9218 249.141C25.0079 250.379 24.7822 251.5 24.2446 252.506C23.707 253.512 22.9001 254.33 21.8238 254.96C20.7475 255.59 19.4441 255.958 17.9137 256.065C16.3833 256.171 15.0416 255.987 13.8884 255.512C12.7352 255.036 11.8228 254.338 11.1512 253.417C10.4796 252.495 10.1008 251.416 10.0147 250.178C9.9286 248.94 10.1544 247.819 10.6919 246.813C11.2295 245.808 12.0365 244.99 13.1128 244.36C14.189 243.729 15.4924 243.361 17.0228 243.255ZM17.1411 244.955C15.8846 245.042 14.8388 245.326 14.0037 245.807C13.1682 246.283 12.5533 246.893 12.1589 247.637C11.7641 248.376 11.5973 249.185 11.6584 250.064C11.7195 250.942 11.9969 251.723 12.4905 252.405C12.9838 253.083 13.6772 253.602 14.5709 253.962C15.4642 254.317 16.539 254.452 17.7955 254.364C19.0519 254.277 20.0979 253.995 20.9333 253.519C21.7685 253.039 22.3834 252.429 22.7782 251.69C23.1726 250.945 23.3392 250.134 23.2781 249.256C23.217 248.377 22.9398 247.599 22.4465 246.921C21.9529 246.239 21.2594 245.72 20.3661 245.364C19.4725 245.004 18.3975 244.868 17.1411 244.955Z" fill="white" fill-opacity="0.4"/>
<path d="M9.65869 225.271L24.2024 225.495L24.1761 227.199L12.6346 234.948L12.6324 235.09L24.0515 235.267L24.0243 237.028L9.48061 236.803L9.50693 235.099L21.0772 227.322L21.0794 227.18L9.63194 227.003L9.65869 225.271Z" fill="white" fill-opacity="0.4"/>
<path d="M11.4925 218.643L9.9367 218.498L10.9449 207.636L12.5007 207.78L12.078 212.335L25.0054 213.535L24.8426 215.288L11.9152 214.089L11.4925 218.643Z" fill="white" fill-opacity="0.4"/>
<path d="M25.9289 204.721L25.6316 206.544L12.1356 198.931L12.4283 197.137L27.6439 194.207L27.3466 196.029L14.5623 198.348L14.544 198.46L25.9289 204.721ZM20.4309 203.134L21.6291 195.788L23.1713 196.039L21.973 203.385L20.4309 203.134Z" fill="white" fill-opacity="0.4"/>
<path d="M21.4031 176.554L20.9878 178.266C20.4709 178.247 19.9953 178.32 19.5612 178.482C19.1282 178.64 18.7416 178.868 18.4015 179.166C18.0578 179.457 17.7691 179.804 17.5353 180.205C17.3015 180.606 17.1277 181.042 17.0138 181.511C16.8062 182.367 16.8343 183.195 17.0982 183.994C17.3633 184.79 17.8671 185.494 18.6098 186.108C19.3536 186.717 20.3375 187.17 21.5614 187.467C22.7854 187.764 23.8675 187.812 24.8078 187.612C25.7492 187.407 26.5199 187.011 27.1199 186.426C27.721 185.836 28.1254 185.113 28.3331 184.258C28.447 183.788 28.492 183.322 28.4681 182.858C28.4442 182.394 28.3487 181.954 28.1816 181.539C28.011 181.117 27.7695 180.737 27.4571 180.398C27.1412 180.054 26.7517 179.771 26.2885 179.552L26.7038 177.84C27.395 178.144 27.9845 178.536 28.4725 179.015C28.9604 179.494 29.3431 180.035 29.6206 180.638C29.8935 181.24 30.057 181.882 30.1111 182.562C30.1663 183.238 30.1074 183.933 29.9344 184.646C29.6418 185.852 29.0872 186.852 28.2705 187.648C27.4537 188.444 26.4371 188.979 25.2205 189.254C24.004 189.529 22.6503 189.485 21.1595 189.124C19.6687 188.762 18.4456 188.18 17.4903 187.378C16.535 186.576 15.8768 185.635 15.5156 184.553C15.1544 183.472 15.12 182.328 15.4126 181.122C15.5856 180.409 15.8516 179.765 16.2105 179.189C16.5705 178.609 17.0121 178.115 17.5352 177.706C18.0538 177.296 18.6396 176.989 19.2928 176.787C19.9414 176.584 20.6448 176.506 21.4031 176.554Z" fill="white" fill-opacity="0.4"/>
<path d="M19.9034 170.665L18.4172 170.182L21.7847 159.806L23.2709 160.288L21.859 164.639L34.2079 168.647L33.6642 170.322L21.3153 166.314L19.9034 170.665Z" fill="white" fill-opacity="0.4"/>
<path d="M29.5199 140.532L30.2301 138.92L39.0431 142.804C39.9529 143.205 40.6708 143.777 41.1967 144.521C41.7202 145.259 42.0168 146.106 42.0867 147.063C42.1522 148.018 41.9549 149.018 41.4947 150.062C41.0346 151.106 40.43 151.926 39.6809 152.522C38.9275 153.117 38.101 153.472 37.2014 153.587C36.2994 153.697 35.3934 153.551 34.4835 153.15L25.6706 149.267L26.3809 147.655L35.0638 151.481C35.7137 151.768 36.3552 151.88 36.9881 151.817C37.6168 151.752 38.1927 151.52 38.7159 151.119C39.2367 150.712 39.6604 150.138 39.9869 149.397C40.3134 148.657 40.4511 147.957 40.4 147.298C40.3445 146.637 40.1276 146.055 39.7491 145.552C39.3681 145.042 38.8527 144.645 38.2028 144.358L29.5199 140.532Z" fill="white" fill-opacity="0.4"/>
<path d="M39.9147 127.868C39.2394 127.605 38.5837 127.647 37.9478 127.995C37.3119 128.343 36.787 128.906 36.373 129.683C36.0704 130.252 35.8975 130.798 35.8544 131.322C35.8135 131.842 35.8905 132.307 36.0855 132.716C36.2826 133.122 36.586 133.434 36.9956 133.652C37.3383 133.834 37.6763 133.91 38.0097 133.878C38.3411 133.84 38.6573 133.735 38.9582 133.562C39.255 133.388 39.5313 133.186 39.7872 132.958C40.0388 132.727 40.2594 132.509 40.4489 132.304L41.4943 131.187C41.7601 130.9 42.0794 130.592 42.4521 130.265C42.8271 129.934 43.2484 129.651 43.7162 129.417C44.182 129.177 44.6874 129.044 45.2325 129.018C45.7775 128.992 46.351 129.139 46.9528 129.459C47.6465 129.829 48.1766 130.344 48.543 131.006C48.9116 131.664 49.0763 132.427 49.037 133.297C49 134.162 48.7189 135.088 48.1936 136.074C47.704 136.994 47.1317 137.711 46.4767 138.226C45.8239 138.736 45.1297 139.043 44.3942 139.145C43.6609 139.242 42.9299 139.129 42.2011 138.805L43.0557 137.201C43.5627 137.417 44.0507 137.468 44.5197 137.353C44.9867 137.231 45.4143 136.992 45.8026 136.636C46.189 136.273 46.5179 135.836 46.7894 135.327C47.1054 134.733 47.2931 134.149 47.3523 133.574C47.4074 132.998 47.3349 132.479 47.1349 132.018C46.9307 131.556 46.5946 131.2 46.1265 130.95C45.7002 130.723 45.2899 130.658 44.8956 130.754C44.5013 130.849 44.1171 131.047 43.7429 131.347C43.3688 131.646 42.9988 131.988 42.6331 132.373L41.3405 133.712C40.518 134.562 39.6835 135.137 38.837 135.437C37.9905 135.737 37.1347 135.657 36.2696 135.196C35.5508 134.814 35.0274 134.285 34.6994 133.612C34.3695 132.932 34.232 132.183 34.2869 131.364C34.3398 130.54 34.5844 129.718 35.0206 128.899C35.4612 128.071 36.0013 127.415 36.6407 126.929C37.276 126.441 37.9487 126.145 38.6589 126.04C39.3713 125.932 40.0569 126.039 40.7158 126.363L39.9147 127.868Z" fill="white" fill-opacity="0.4"/>
<path d="M53.4525 107.676L52.4745 109.141C51.9953 108.946 51.524 108.851 51.0604 108.854C50.5995 108.854 50.1582 108.935 49.7365 109.098C49.3136 109.254 48.9234 109.48 48.566 109.777C48.2086 110.073 47.8958 110.422 47.6277 110.824C47.1387 111.556 46.8808 112.344 46.854 113.185C46.8298 114.023 47.061 114.858 47.5477 115.689C48.037 116.517 48.8053 117.28 49.8528 117.98C50.9003 118.679 51.9 119.096 52.852 119.231C53.8066 119.361 54.6662 119.255 55.4307 118.911C56.1979 118.564 56.8259 118.024 57.3149 117.291C57.5831 116.89 57.7856 116.467 57.9225 116.023C58.0593 115.579 58.1207 115.134 58.1065 114.686C58.0911 114.231 57.9949 113.791 57.8178 113.366C57.6395 112.934 57.3706 112.535 57.011 112.17L57.989 110.705C58.5336 111.228 58.9528 111.798 59.2466 112.415C59.5403 113.033 59.7139 113.672 59.7673 114.334C59.8168 114.994 59.7501 115.652 59.5671 116.31C59.3867 116.964 59.0928 117.596 58.6853 118.206C57.9965 119.238 57.1319 119.987 56.0916 120.454C55.0512 120.921 53.9126 121.074 52.6756 120.915C51.4387 120.755 50.1823 120.249 48.9064 119.397C47.6305 118.546 46.6817 117.579 46.0599 116.498C45.4382 115.417 45.1434 114.306 45.1757 113.166C45.208 112.027 45.5685 110.941 46.2573 109.909C46.6648 109.299 47.1359 108.785 47.6707 108.368C48.208 107.946 48.7926 107.634 49.4244 107.429C50.0523 107.222 50.7076 107.136 51.3905 107.17C52.0694 107.202 52.7567 107.371 53.4525 107.676Z" fill="white" fill-opacity="0.4"/>
<path d="M66.1815 95.4454C67.3849 96.3969 68.2531 97.4364 68.786 98.564C69.319 99.6916 69.5236 100.822 69.4 101.956C69.2763 103.089 68.8298 104.143 68.0604 105.116C67.291 106.089 66.369 106.766 65.2945 107.148C64.2201 107.53 63.0728 107.592 61.8526 107.333C60.6325 107.075 59.4207 106.47 58.2174 105.518C57.014 104.567 56.1458 103.527 55.6128 102.4C55.0799 101.272 54.8752 100.141 54.9989 99.0078C55.1226 97.8742 55.5691 96.8209 56.3385 95.8478C57.1079 94.8747 58.0298 94.1972 59.1043 93.8154C60.1788 93.4336 61.3261 93.372 62.5462 93.6304C63.7664 93.8889 64.9781 94.4939 66.1815 95.4454ZM65.1243 96.7825C64.1364 96.0013 63.1719 95.5073 62.2308 95.3005C61.2927 95.0899 60.4274 95.1271 59.6348 95.4118C58.8452 95.6929 58.1772 96.1789 57.631 96.8697C57.0848 97.5605 56.7646 98.3244 56.6703 99.1613C56.5789 99.9945 56.7424 100.845 57.1607 101.713C57.582 102.577 58.2866 103.4 59.2745 104.181C60.2625 104.962 61.2256 105.458 62.1637 105.669C63.1047 105.875 63.9701 105.838 64.7597 105.557C65.5522 105.272 66.2216 104.785 66.7679 104.094C67.3141 103.403 67.6329 102.641 67.7242 101.808C67.8185 100.971 67.655 100.12 67.2338 99.2561C66.8154 98.3882 66.1123 97.5636 65.1243 96.7825Z" fill="white" fill-opacity="0.4"/>
<path d="M72.4888 77.5222L83.1048 87.4657L81.9395 88.7097L68.1859 86.6875L68.0888 86.7911L76.424 94.5983L75.2199 95.8838L64.604 85.9404L65.7692 84.6963L79.563 86.7173L79.6601 86.6136L71.3041 78.787L72.4888 77.5222Z" fill="white" fill-opacity="0.4"/>
<path d="M78.1351 73.9747L77.0795 72.8227L85.1223 65.4524L86.1779 66.6044L82.8058 69.6946L91.5772 79.2663L90.2787 80.4563L81.5072 70.8846L78.1351 73.9747Z" fill="white" fill-opacity="0.4"/>
<path d="M99.1301 72.545L97.6816 73.6903L92.8498 58.9679L94.2761 57.8402L107.487 65.9376L106.038 67.0829L95.0347 60.1739L94.9456 60.2444L99.1301 72.545ZM96.141 67.6652L101.98 63.0488L102.949 64.2744L97.1101 68.8908L96.141 67.6652Z" fill="white" fill-opacity="0.4"/>
<path d="M113.891 49.2781L112.433 50.2668C112.063 49.906 111.662 49.64 111.231 49.4688C110.804 49.2949 110.365 49.2038 109.913 49.1956C109.463 49.1808 109.016 49.2435 108.573 49.3836C108.13 49.5237 107.709 49.7293 107.31 50.0004C106.581 50.4948 106.045 51.1268 105.703 51.8964C105.366 52.6634 105.265 53.5238 105.403 54.4774C105.545 55.4284 105.969 56.425 106.676 57.4674C107.383 58.5097 108.152 59.2725 108.983 59.7557C109.818 60.2362 110.654 60.4613 111.492 60.431C112.334 60.398 113.119 60.1344 113.848 59.64C114.247 59.3689 114.594 59.0536 114.888 58.6941C115.182 58.3345 115.407 57.9447 115.562 57.5245C115.719 57.0977 115.796 56.6539 115.792 56.193C115.79 55.7255 115.691 55.2548 115.495 54.781L116.953 53.7923C117.26 54.4819 117.434 55.168 117.474 55.8506C117.513 56.5332 117.433 57.1911 117.233 57.8244C117.031 58.4537 116.721 59.0386 116.304 59.5791C115.89 60.1169 115.38 60.5917 114.773 61.0037C113.746 61.7 112.663 62.0685 111.523 62.1091C110.384 62.1497 109.271 61.8631 108.185 61.2493C107.1 60.6355 106.126 59.6938 105.265 58.4242C104.404 57.1546 103.889 55.9019 103.72 54.6661C103.551 53.4304 103.697 52.2907 104.156 51.2469C104.615 50.2031 105.358 49.3331 106.385 48.6368C106.992 48.2248 107.622 47.9263 108.274 47.7411C108.931 47.5534 109.59 47.4837 110.253 47.5323C110.912 47.5769 111.552 47.7439 112.171 48.0331C112.788 48.3184 113.361 48.7334 113.891 49.2781Z" fill="white" fill-opacity="0.4"/>
<path d="M116.298 44.1386L115.518 42.7846L124.972 37.3401L125.752 38.6941L121.788 40.9768L128.268 52.2272L126.741 53.1063L120.262 41.8558L116.298 44.1386Z" fill="white" fill-opacity="0.4"/>
<path d="M147.16 31.5497L145.554 32.2719C145.251 31.8526 144.902 31.5214 144.507 31.2784C144.117 31.0334 143.7 30.8679 143.256 30.7819C142.815 30.6895 142.364 30.6742 141.904 30.7357C141.444 30.7973 140.993 30.9272 140.553 31.1252C139.75 31.4863 139.113 32.0165 138.644 32.7156C138.178 33.4127 137.931 34.2429 137.902 35.2059C137.877 36.1671 138.123 37.222 138.64 38.3707C139.156 39.5194 139.782 40.4035 140.518 41.0229C141.257 41.6404 142.042 42.0065 142.872 42.1212C143.707 42.2339 144.526 42.1097 145.329 41.7486C145.77 41.5506 146.166 41.2998 146.517 40.9964C146.869 40.693 147.157 40.3477 147.383 39.9607C147.611 39.5675 147.763 39.1435 147.839 38.6889C147.918 38.228 147.901 37.7473 147.79 37.2468L149.397 36.5245C149.581 37.2569 149.633 37.9627 149.555 38.6418C149.476 39.321 149.283 39.9552 148.977 40.5445C148.669 41.1294 148.263 41.6521 147.759 42.1124C147.259 42.5708 146.674 42.9505 146.005 43.2514C144.873 43.7601 143.743 43.9361 142.613 43.7794C141.484 43.6228 140.437 43.1484 139.474 42.3564C138.511 41.5644 137.714 40.4689 137.085 39.0697C136.456 37.6705 136.165 36.3478 136.212 35.1014C136.259 33.8551 136.599 32.7575 137.231 31.8087C137.864 30.8598 138.746 30.1311 139.877 29.6224C140.547 29.3214 141.219 29.1361 141.893 29.0664C142.572 28.9947 143.234 29.0399 143.878 29.2021C144.52 29.3599 145.121 29.6347 145.681 30.0265C146.24 30.414 146.733 30.9217 147.16 31.5497Z" fill="white" fill-opacity="0.4"/>
<path d="M164.828 27.7755C165.34 29.2217 165.521 30.5639 165.372 31.8022C165.223 33.0404 164.794 34.1063 164.086 34.9999C163.377 35.8935 162.438 36.5473 161.269 36.9612C160.099 37.3751 158.958 37.4576 157.846 37.2085C156.733 36.9595 155.729 36.4007 154.834 35.5321C153.939 34.6636 153.235 33.5062 152.723 32.06C152.211 30.6139 152.03 29.2717 152.18 28.0334C152.329 26.7952 152.758 25.7293 153.466 24.8357C154.175 23.942 155.113 23.2883 156.283 22.8744C157.452 22.4604 158.593 22.378 159.706 22.6271C160.819 22.8761 161.823 23.4349 162.718 24.3035C163.613 25.172 164.317 26.3294 164.828 27.7755ZM163.222 28.3443C162.801 27.157 162.248 26.2252 161.562 25.549C160.88 24.8712 160.128 24.4418 159.305 24.2608C158.487 24.0782 157.663 24.1338 156.833 24.4277C156.002 24.7215 155.325 25.1975 154.799 25.8556C154.278 26.5122 153.964 27.3192 153.855 28.2766C153.752 29.2324 153.91 30.304 154.33 31.4913C154.75 32.6786 155.302 33.6111 155.983 34.2889C156.67 34.9652 157.422 35.3946 158.24 35.5772C159.062 35.7582 159.889 35.7018 160.719 35.4079C161.549 35.1141 162.225 34.6389 162.746 33.9823C163.271 33.3242 163.586 32.5172 163.69 31.5614C163.798 30.6039 163.642 29.5316 163.222 28.3443Z" fill="white" fill-opacity="0.4"/>
<path d="M180.615 15.7222L184.26 29.8037L182.61 30.2307L172.075 21.1605L171.937 21.1961L174.799 32.2522L173.094 32.6935L169.449 18.6121L171.099 18.185L181.669 27.2756L181.806 27.24L178.938 16.1564L180.615 15.7222Z" fill="white" fill-opacity="0.4"/>
<path d="M186.923 15.8277L186.648 14.2896L197.387 12.3687L197.662 13.9068L193.16 14.7122L195.446 27.4923L193.712 27.8024L191.426 15.0223L186.923 15.8277Z" fill="white" fill-opacity="0.4"/>
<path d="M205.404 25.8595L203.568 26.0513L207.368 11.0297L209.177 10.8407L216 24.7525L214.164 24.9444L208.568 13.218L208.455 13.2298L205.404 25.8595ZM205.492 20.1376L212.895 19.3642L213.057 20.9182L205.654 21.6916L205.492 20.1376Z" fill="white" fill-opacity="0.4"/>
<path d="M230.468 14.1035L228.707 14.1579C228.587 13.6547 228.391 13.2155 228.119 12.8402C227.852 12.4647 227.53 12.1525 227.152 11.9037C226.78 11.6499 226.369 11.4636 225.92 11.3448C225.471 11.2261 225.005 11.1741 224.523 11.189C223.642 11.2162 222.852 11.4633 222.151 11.9302C221.455 12.397 220.909 13.07 220.515 13.949C220.125 14.828 219.95 15.8969 219.989 17.1557C220.028 18.4146 220.269 19.4706 220.712 20.3238C221.16 21.1769 221.746 21.8149 222.469 22.2378C223.198 22.6606 224.002 22.8584 224.882 22.8312C225.365 22.8163 225.827 22.7357 226.267 22.5895C226.708 22.4432 227.107 22.2343 227.463 21.9628C227.824 21.6863 228.126 21.3525 228.37 20.9613C228.618 20.5652 228.787 20.1147 228.875 19.6098L230.636 19.5554C230.526 20.3025 230.306 20.9749 229.974 21.5726C229.641 22.1702 229.221 22.683 228.714 23.1108C228.206 23.5339 227.631 23.8619 226.989 24.0949C226.352 24.3278 225.667 24.4555 224.933 24.4782C223.693 24.5165 222.581 24.2476 221.597 23.6717C220.613 23.0957 219.827 22.2579 219.238 21.1581C218.65 20.0583 218.332 18.7417 218.285 17.2083C218.238 15.675 218.474 14.3413 218.993 13.2073C219.512 12.0733 220.245 11.1885 221.192 10.5529C222.138 9.91734 223.232 9.5804 224.472 9.5421C225.205 9.51944 225.897 9.60466 226.547 9.79775C227.202 9.99069 227.796 10.285 228.33 10.6806C228.863 11.0716 229.314 11.555 229.682 12.1311C230.05 12.7024 230.312 13.3598 230.468 14.1035Z" fill="white" fill-opacity="0.4"/>
<path d="M236.628 11.0778L236.7 9.51696L247.597 10.022L247.525 11.5828L242.956 11.371L242.355 24.3401L240.596 24.2585L241.197 11.2895L236.628 11.0778Z" fill="white" fill-opacity="0.4"/>
<path d="M268.322 12.3573L270.065 12.6142L268.66 22.1419C268.515 23.1256 268.154 23.9697 267.576 24.6742C267.004 25.3748 266.266 25.8858 265.362 26.2072C264.459 26.5239 263.442 26.5991 262.313 26.4327C261.185 26.2662 260.233 25.9011 259.46 25.3372C258.687 24.7686 258.125 24.066 257.775 23.2294C257.43 22.3889 257.329 21.4767 257.474 20.493L258.879 10.9653L260.621 11.2222L259.238 20.6094C259.134 21.312 259.197 21.9601 259.425 22.5538C259.654 23.1427 260.031 23.6362 260.556 24.0343C261.087 24.4284 261.753 24.6845 262.554 24.8025C263.355 24.9206 264.066 24.8675 264.688 24.6433C265.31 24.4144 265.814 24.0507 266.198 23.5522C266.588 23.0497 266.835 22.4472 266.939 21.7445L268.322 12.3573Z" fill="white" fill-opacity="0.4"/>
<path d="M282.68 18.8647C282.753 18.1437 282.537 17.5232 282.032 17.0033C281.527 16.4834 280.845 16.1278 279.985 15.9364C279.356 15.7965 278.784 15.7758 278.267 15.8742C277.755 15.9737 277.328 16.172 276.985 16.4693C276.647 16.7676 276.428 17.1432 276.327 17.5961C276.242 17.9751 276.26 18.321 276.38 18.6338C276.505 18.943 276.691 19.2196 276.937 19.4636C277.184 19.703 277.453 19.9155 277.741 20.101C278.031 20.2818 278.299 20.4363 278.547 20.5642L279.903 21.2734C280.251 21.4528 280.633 21.6783 281.048 21.9502C281.467 22.223 281.852 22.5536 282.202 22.942C282.558 23.3268 282.821 23.7783 282.992 24.2965C283.163 24.8148 283.174 25.4067 283.026 26.0722C282.855 26.8394 282.5 27.4879 281.96 28.0177C281.425 28.5486 280.733 28.9112 279.884 29.1055C279.04 29.3009 278.073 29.2772 276.982 29.0345C275.966 28.8081 275.122 28.4481 274.451 27.9543C273.784 27.4616 273.304 26.8744 273.009 26.1928C272.719 25.5123 272.633 24.7776 272.75 23.9888L274.525 24.3838C274.452 24.9302 274.533 25.414 274.769 25.8352C275.011 26.2528 275.356 26.6011 275.803 26.8802C276.256 27.1556 276.764 27.356 277.328 27.4815C277.984 27.6276 278.597 27.6525 279.167 27.5561C279.737 27.4551 280.218 27.2468 280.608 26.9311C281 26.6108 281.253 26.1918 281.368 25.6741C281.473 25.2027 281.427 24.7898 281.229 24.4354C281.032 24.0809 280.739 23.7635 280.35 23.4829C279.961 23.2024 279.533 22.9372 279.064 22.6875L277.429 21.7995C276.39 21.2337 275.613 20.583 275.098 19.8474C274.583 19.1118 274.431 18.2656 274.644 17.3089C274.821 16.514 275.191 15.8686 275.752 15.3727C276.319 14.8731 277.004 14.5406 277.808 14.375C278.617 14.2058 279.474 14.222 280.38 14.4236C281.295 14.6273 282.072 14.9724 282.711 15.459C283.35 15.9409 283.815 16.5101 284.106 17.1666C284.401 17.824 284.48 18.5135 284.344 19.235L282.68 18.8647Z" fill="white" fill-opacity="0.4"/>
<path d="M306.652 26.7944L304.981 26.2381C305.042 25.7245 305.01 25.2446 304.884 24.7984C304.763 24.3538 304.568 23.9496 304.3 23.5859C304.038 23.2191 303.716 22.9026 303.336 22.6362C302.955 22.3699 302.536 22.1604 302.078 22.0079C301.242 21.7297 300.415 21.6888 299.596 21.8853C298.782 22.0833 298.038 22.5268 297.364 23.2158C296.695 23.9063 296.162 24.849 295.764 26.044C295.366 27.239 295.228 28.3134 295.35 29.2671C295.476 30.2223 295.805 31.0233 296.339 31.6699C296.877 32.318 297.563 32.7811 298.399 33.0593C298.857 33.2118 299.318 33.2955 299.782 33.3103C300.247 33.3251 300.693 33.2665 301.121 33.1346C301.555 32.9997 301.954 32.7906 302.318 32.5075C302.687 32.2214 303.001 31.8567 303.258 31.4134L304.93 31.9697C304.569 32.6331 304.13 33.1881 303.612 33.6345C303.094 34.0809 302.523 34.4172 301.899 34.6436C301.276 34.8654 300.623 34.975 299.94 34.9722C299.262 34.971 298.575 34.8545 297.878 34.6227C296.701 34.2309 295.75 33.5949 295.025 32.7148C294.3 31.8346 293.851 30.777 293.679 29.5418C293.506 28.3066 293.662 26.9612 294.147 25.5056C294.631 24.0501 295.313 22.8797 296.191 21.9944C297.07 21.1092 298.063 20.5316 299.171 20.2617C300.279 19.9917 301.421 20.0526 302.598 20.4445C303.295 20.6763 303.915 20.995 304.458 21.4005C305.006 21.8076 305.463 22.2888 305.827 22.8441C306.192 23.395 306.448 24.0043 306.595 24.672C306.744 25.3352 306.763 26.0427 306.652 26.7944Z" fill="white" fill-opacity="0.4"/>
<path d="M322.273 36.0598C321.67 37.4704 320.895 38.5807 319.946 39.3905C318.998 40.2003 317.96 40.6941 316.834 40.8718C315.707 41.0495 314.574 40.8946 313.433 40.4071C312.292 39.9196 311.397 39.2073 310.747 38.2705C310.097 37.3336 309.737 36.2425 309.667 34.9973C309.596 33.7521 309.863 32.4241 310.465 31.0134C311.068 29.6028 311.844 28.4925 312.793 27.6827C313.741 26.8729 314.779 26.3792 315.905 26.2014C317.031 26.0237 318.165 26.1786 319.306 26.6662C320.446 27.1537 321.342 27.8659 321.992 28.8028C322.642 29.7397 323.002 30.8307 323.072 32.0759C323.142 33.3212 322.876 34.6491 322.273 36.0598ZM320.706 35.3899C321.201 34.2318 321.425 33.1715 321.378 32.2091C321.335 31.2486 321.073 30.4233 320.59 29.733C320.112 29.0446 319.468 28.5274 318.658 28.1813C317.848 27.8352 317.027 27.7263 316.195 27.8546C315.367 27.9848 314.589 28.3654 313.861 28.9966C313.137 29.6296 312.528 30.5252 312.033 31.6833C311.538 32.8415 311.312 33.9008 311.354 34.8613C311.401 35.8237 311.664 36.649 312.142 37.3374C312.625 38.0276 313.271 38.5458 314.081 38.8919C314.89 39.238 315.709 39.346 316.537 39.2158C317.37 39.0875 318.148 38.7069 318.871 38.0739C319.599 37.4427 320.211 36.548 320.706 35.3899Z" fill="white" fill-opacity="0.4"/>
<path d="M340.242 36.9525L333.452 49.8163L331.945 49.0206L330.266 35.221L330.14 35.1547L324.81 45.2548L323.252 44.4326L330.041 31.5688L331.548 32.3645L333.24 46.2025L333.365 46.2688L338.709 36.1436L340.242 36.9525Z" fill="white" fill-opacity="0.4"/>
<path d="M345.402 41.5935L346.236 40.2721L355.461 46.0945L354.627 47.4158L350.759 44.9747L343.83 55.9539L342.34 55.0138L349.27 44.0346L345.402 41.5935Z" fill="white" fill-opacity="0.4"/>
<path d="M352.406 61.5455L350.921 60.4484L363.859 51.9218L365.321 53.002L360.975 67.8751L359.49 66.778L363.268 54.3466L363.177 54.2791L352.406 61.5455ZM356.33 57.3803L362.317 61.8026L361.389 63.0594L355.402 58.6372L356.33 57.3803Z" fill="white" fill-opacity="0.4"/>
<path d="M378.746 69.6934L377.409 68.5465C377.66 68.0942 377.811 67.6377 377.863 67.177C377.919 66.7195 377.891 66.2716 377.78 65.8335C377.676 65.3949 377.499 64.9803 377.247 64.5899C376.996 64.1995 376.687 63.8471 376.32 63.5326C375.652 62.9592 374.901 62.6086 374.069 62.4808C373.24 62.3562 372.384 62.4855 371.5 62.8687C370.619 63.2551 369.769 63.9262 368.949 64.8821C368.129 65.838 367.595 66.7804 367.347 67.7093C367.102 68.6413 367.105 69.5075 367.354 70.3077C367.607 71.111 368.068 71.7994 368.736 72.3729C369.103 72.6873 369.498 72.9391 369.922 73.1283C370.346 73.3175 370.781 73.432 371.228 73.4717C371.681 73.5109 372.129 73.4683 372.573 73.3437C373.023 73.2185 373.451 72.9994 373.857 72.6863L375.194 73.8332C374.609 74.3111 373.993 74.6588 373.345 74.8762C372.696 75.0937 372.041 75.1892 371.377 75.1627C370.717 75.1326 370.071 74.9872 369.44 74.7266C368.812 74.469 368.22 74.1013 367.663 73.6234C366.722 72.8157 366.082 71.8674 365.743 70.7785C365.405 69.6895 365.389 68.5407 365.696 67.3319C366.003 66.1231 366.656 64.9365 367.655 63.7722C368.654 62.6079 369.727 61.782 370.876 61.2946C372.024 60.8073 373.161 60.648 374.289 60.817C375.417 60.9859 376.451 61.4743 377.393 62.282C377.95 62.7599 378.404 63.2893 378.754 63.8703C379.107 64.4544 379.347 65.0723 379.475 65.7241C379.605 66.3723 379.612 67.0332 379.495 67.707C379.382 68.3771 379.132 69.0393 378.746 69.6934Z" fill="white" fill-opacity="0.4"/>
<path d="M385.275 71.5748L386.379 70.4699L394.093 78.1838L392.989 79.2887L389.754 76.0545L380.574 85.2348L379.328 83.9893L388.509 74.809L385.275 71.5748Z" fill="white" fill-opacity="0.4"/>
<path d="M407.384 93.3642L408.502 94.7257L401.057 100.835C400.288 101.466 399.453 101.848 398.552 101.982C397.658 102.115 396.768 101.998 395.882 101.628C395 101.255 394.198 100.628 393.474 99.7454C392.75 98.8634 392.291 97.9536 392.097 97.0161C391.907 96.0756 391.964 95.1778 392.267 94.3228C392.576 93.4685 393.115 92.726 393.884 92.0952L401.329 85.9855L402.446 87.347L395.111 93.3666C394.562 93.8172 394.173 94.339 393.943 94.932C393.716 95.522 393.664 96.1409 393.785 96.7887C393.913 97.4371 394.234 98.0742 394.747 98.7001C395.261 99.326 395.823 99.7649 396.434 100.017C397.049 100.266 397.666 100.335 398.286 100.224C398.913 100.115 399.5 99.8343 400.049 99.3838L407.384 93.3642Z" fill="white" fill-opacity="0.4"/>
<path d="M413.888 108.187C414.427 107.703 414.684 107.098 414.66 106.374C414.635 105.649 414.369 104.927 413.862 104.207C413.491 103.681 413.081 103.281 412.632 103.006C412.186 102.735 411.737 102.595 411.283 102.584C410.832 102.578 410.417 102.708 410.038 102.976C409.721 103.2 409.501 103.467 409.379 103.779C409.264 104.092 409.216 104.422 409.234 104.768C409.256 105.112 409.312 105.449 409.401 105.781C409.493 106.109 409.588 106.404 409.686 106.666L410.212 108.102C410.349 108.469 410.48 108.893 410.604 109.373C410.731 109.857 410.794 110.36 410.792 110.883C410.796 111.407 410.688 111.919 410.466 112.417C410.244 112.915 409.854 113.361 409.297 113.754C408.654 114.207 407.955 114.448 407.199 114.477C406.446 114.51 405.69 114.313 404.932 113.887C404.176 113.464 403.476 112.796 402.832 111.883C402.231 111.031 401.849 110.197 401.684 109.381C401.522 108.568 401.561 107.81 401.802 107.108C402.045 106.409 402.475 105.807 403.092 105.302L404.14 106.788C403.719 107.143 403.454 107.556 403.345 108.027C403.243 108.498 403.264 108.988 403.407 109.495C403.557 110.003 403.799 110.494 404.132 110.966C404.519 111.515 404.956 111.946 405.443 112.257C405.933 112.566 406.428 112.735 406.93 112.764C407.435 112.79 407.904 112.65 408.338 112.345C408.732 112.066 408.976 111.73 409.068 111.335C409.16 110.939 409.156 110.507 409.057 110.038C408.958 109.569 408.819 109.085 408.641 108.585L408.027 106.828C407.639 105.711 407.502 104.707 407.615 103.816C407.728 102.925 408.185 102.197 408.986 101.632C409.652 101.163 410.359 100.933 411.108 100.944C411.864 100.955 412.594 101.17 413.3 101.588C414.013 102.006 414.636 102.595 415.171 103.353C415.712 104.119 416.055 104.897 416.2 105.687C416.35 106.474 416.311 107.208 416.085 107.889C415.861 108.574 415.456 109.138 414.87 109.58L413.888 108.187Z" fill="white" fill-opacity="0.4"/>
<path d="M425.842 129.378L424.974 127.846C425.364 127.505 425.661 127.127 425.867 126.712C426.074 126.3 426.201 125.87 426.245 125.42C426.296 124.972 426.27 124.522 426.166 124.069C426.062 123.617 425.891 123.18 425.653 122.76C425.22 121.994 424.633 121.409 423.893 121.006C423.156 120.607 422.307 120.438 421.345 120.498C420.386 120.563 419.358 120.905 418.262 121.525C417.166 122.146 416.344 122.851 415.795 123.64C415.248 124.434 414.957 125.25 414.919 126.087C414.884 126.928 415.084 127.732 415.517 128.499C415.755 128.919 416.042 129.29 416.376 129.612C416.711 129.934 417.081 130.189 417.488 130.378C417.9 130.569 418.337 130.681 418.796 130.715C419.262 130.75 419.74 130.69 420.228 130.533L421.095 132.066C420.383 132.317 419.685 132.434 419.002 132.419C418.318 132.403 417.669 132.27 417.054 132.02C416.443 131.767 415.885 131.411 415.38 130.951C414.877 130.496 414.445 129.949 414.084 129.31C413.472 128.231 413.193 127.122 413.244 125.982C413.296 124.843 413.671 123.757 414.371 122.725C415.07 121.692 416.087 120.798 417.422 120.042C418.757 119.286 420.047 118.874 421.293 118.806C422.538 118.737 423.662 118.974 424.666 119.516C425.669 120.058 426.476 120.869 427.087 121.948C427.449 122.587 427.696 123.239 427.827 123.904C427.962 124.574 427.978 125.236 427.876 125.893C427.778 126.547 427.56 127.171 427.222 127.765C426.888 128.357 426.428 128.894 425.842 129.378Z" fill="white" fill-opacity="0.4"/>
<path d="M431.149 146.511C429.757 147.156 428.438 147.461 427.191 147.428C425.944 147.395 424.843 147.068 423.887 146.446C422.931 145.824 422.193 144.95 421.672 143.825C421.15 142.699 420.962 141.571 421.106 140.439C421.25 139.308 421.712 138.257 422.494 137.284C423.275 136.312 424.361 135.504 425.753 134.859C427.145 134.214 428.465 133.909 429.712 133.942C430.958 133.975 432.06 134.302 433.016 134.924C433.971 135.546 434.71 136.42 435.231 137.545C435.753 138.671 435.941 139.799 435.797 140.931C435.653 142.062 435.19 143.113 434.409 144.086C433.628 145.058 432.541 145.866 431.149 146.511ZM430.433 144.964C431.576 144.435 432.452 143.797 433.061 143.051C433.672 142.308 434.03 141.519 434.133 140.684C434.239 139.852 434.106 139.037 433.736 138.238C433.366 137.439 432.829 136.808 432.125 136.346C431.422 135.889 430.589 135.651 429.626 135.633C428.665 135.619 427.613 135.876 426.47 136.406C425.327 136.935 424.45 137.571 423.839 138.313C423.229 139.059 422.872 139.848 422.767 140.68C422.663 141.516 422.797 142.333 423.167 143.132C423.537 143.931 424.073 144.56 424.775 145.017C425.48 145.479 426.312 145.717 427.274 145.731C428.237 145.749 429.29 145.494 430.433 144.964Z" fill="white" fill-opacity="0.4"/>
<path d="M444.442 160.694L430.767 165.65L430.186 164.047L438.223 152.704L438.174 152.57L427.437 156.462L426.837 154.806L440.512 149.85L441.093 151.452L433.04 162.832L433.088 162.965L443.852 159.064L444.442 160.694Z" fill="white" fill-opacity="0.4"/>
<path d="M444.876 166.853L446.381 166.433L449.314 176.941L447.809 177.361L446.579 172.955L434.074 176.446L433.601 174.75L446.106 171.259L444.876 166.853Z" fill="white" fill-opacity="0.4"/>
<path d="M436.52 185.691L436.153 183.881L451.47 186.227L451.831 188.009L438.636 196.132L438.269 194.323L449.406 187.631L449.384 187.519L436.52 185.691ZM442.224 185.231L443.702 192.526L442.171 192.836L440.693 185.541L442.224 185.231Z" fill="white" fill-opacity="0.4"/>
<path d="M450.743 210.642L450.526 208.894C451.016 208.729 451.436 208.493 451.784 208.187C452.133 207.886 452.415 207.537 452.628 207.138C452.846 206.744 452.993 206.318 453.07 205.86C453.147 205.402 453.156 204.933 453.096 204.454C452.988 203.58 452.669 202.815 452.139 202.16C451.61 201.51 450.89 201.03 449.978 200.718C449.067 200.411 447.987 200.335 446.737 200.49C445.487 200.645 444.457 200.982 443.649 201.502C442.841 202.027 442.26 202.669 441.905 203.429C441.551 204.193 441.429 205.012 441.537 205.886C441.596 206.366 441.719 206.818 441.906 207.243C442.092 207.669 442.337 208.046 442.64 208.376C442.949 208.71 443.309 208.98 443.721 209.187C444.138 209.397 444.602 209.524 445.113 209.565L445.33 211.313C444.576 211.273 443.886 211.115 443.26 210.84C442.635 210.564 442.085 210.193 441.612 209.727C441.144 209.26 440.765 208.718 440.473 208.101C440.183 207.488 439.992 206.817 439.902 206.089C439.749 204.858 439.914 203.726 440.397 202.693C440.88 201.66 441.641 200.799 442.682 200.112C443.723 199.425 445.005 198.987 446.527 198.798C448.049 198.61 449.399 198.721 450.576 199.134C451.753 199.546 452.702 200.194 453.422 201.078C454.143 201.962 454.579 203.02 454.732 204.251C454.822 204.979 454.801 205.676 454.669 206.341C454.537 207.011 454.299 207.63 453.954 208.198C453.614 208.765 453.174 209.258 452.635 209.678C452.1 210.097 451.469 210.419 450.743 210.642Z" fill="white" fill-opacity="0.4"/>
<path d="M454.192 215.248L455.753 215.17L456.3 226.065L454.739 226.143L454.51 221.575L441.543 222.226L441.455 220.467L454.422 219.816L454.192 215.248Z" fill="white" fill-opacity="0.4"/>
</svg>
